<svg xmlns="http://www.w3.org/2000/svg" xmlns:xlink="http://www.w3.org/1999/xlink" width="500" zoomAndPan="magnify" viewBox="0 0 375 374.999991" height="500" preserveAspectRatio="xMidYMid meet" version="1.0"><defs><clipPath id="e00bc5c29c"><path d="M 3.75 0 L 371.25 0 L 371.25 375 L 3.75 375 Z M 3.75 0 " clip-rule="nonzero"/></clipPath></defs><g clip-path="url(#e00bc5c29c)"><path fill="#ffffff" d="M 222.90625 94.988281 C 213.847656 85.929688 201.3125 80.300781 187.46875 80.300781 C 173.625 80.300781 161.089844 85.929688 152.007812 94.988281 C 142.953125 104.066406 137.324219 116.605469 137.324219 130.445312 C 137.324219 144.289062 142.953125 156.824219 152.007812 165.90625 C 161.066406 174.964844 173.605469 180.566406 187.421875 180.566406 L 187.492188 180.566406 C 201.3125 180.566406 213.847656 174.964844 222.90625 165.90625 C 231.988281 156.824219 237.589844 144.289062 237.589844 130.445312 C 237.589844 116.605469 231.988281 104.066406 222.90625 94.988281 Z M 183.726562 327.746094 C 184.324219 328.164062 184.925781 328.589844 185.519531 329.007812 M 32.957031 72.789062 L 185.1875 24.816406 C 186.589844 24.375 188.132812 24.332031 189.640625 24.792969 L 341.671875 72.695312 C 345.042969 73.585938 347.386719 76.769531 347.097656 80.355469 C 343.050781 131.667969 327.855469 180.699219 303.339844 224.460938 C 303.253906 224.636719 303.160156 224.816406 303.054688 224.992188 C 289.566406 248.953125 273.265625 271.320312 254.460938 291.628906 C 235.882812 311.671875 214.867188 329.65625 191.65625 345.160156 C 191.371094 345.359375 191.101562 345.515625 190.816406 345.667969 L 190.746094 345.691406 L 190.699219 345.714844 L 190.613281 345.761719 L 190.589844 345.785156 C 189.59375 346.25 188.535156 346.496094 187.46875 346.496094 L 187.335938 346.472656 C 186.316406 346.472656 185.296875 346.226562 184.347656 345.785156 L 184.324219 345.785156 L 184.253906 345.738281 L 184.144531 345.691406 L 184.121094 345.667969 C 183.835938 345.515625 183.550781 345.359375 183.257812 345.160156 C 182.660156 344.757812 182.058594 344.339844 181.464844 343.9375 L 181.214844 343.785156 C 180.597656 343.367188 179.980469 342.941406 179.355469 342.5 L 179.113281 342.347656 C 178.496094 341.929688 177.894531 341.503906 177.273438 341.0625 L 177.035156 340.910156 C 176.417969 340.46875 175.796875 340.019531 175.148438 339.578125 L 174.996094 339.472656 C 174.375 339.03125 173.734375 338.566406 173.109375 338.117188 L 172.929688 338.011719 C 172.289062 337.546875 171.648438 337.058594 171.007812 336.597656 L 170.960938 336.574219 C 152.582031 323.132812 135.679688 308.070312 120.46875 291.636719 C 101.601562 271.289062 85.28125 248.851562 71.769531 224.84375 C 71.699219 224.738281 71.660156 224.621094 71.589844 224.488281 C 47.054688 180.730469 31.859375 131.675781 27.808594 80.363281 L 27.832031 80.363281 C 27.570312 77.015625 29.625 73.832031 32.949219 72.789062 Z M 177.484375 323.195312 L 178.371094 323.859375 C 178.773438 324.144531 179.191406 324.453125 179.59375 324.746094 L 180.058594 325.078125 C 180.542969 325.457031 181.054688 325.8125 181.5625 326.183594 L 181.917969 326.433594 C 182.453125 326.835938 183 327.207031 183.558594 327.605469 L 183.628906 327.652344 L 183.628906 327.675781 L 183.734375 327.746094 C 184.332031 328.164062 184.933594 328.589844 185.527344 329.007812 L 185.550781 329.007812 C 186.195312 329.46875 186.835938 329.910156 187.476562 330.359375 C 188.117188 329.917969 188.761719 329.46875 189.402344 329.007812 C 189.996094 328.589844 190.597656 328.164062 191.21875 327.746094 L 191.300781 327.675781 L 191.324219 327.652344 L 191.394531 327.605469 C 191.953125 327.207031 192.476562 326.835938 193.035156 326.433594 L 193.390625 326.167969 C 193.875 325.835938 194.339844 325.480469 194.804688 325.148438 L 195.421875 324.707031 C 195.800781 324.421875 196.171875 324.128906 196.550781 323.867188 L 197.476562 323.179688 L 198.320312 322.558594 C 198.675781 322.273438 199.054688 322.003906 199.402344 321.742188 L 200.113281 321.207031 C 200.601562 320.828125 201.085938 320.457031 201.574219 320.078125 L 201.773438 319.949219 C 216.898438 308.324219 230.921875 295.5 243.742188 281.683594 C 260.21875 263.898438 274.679688 244.429688 286.945312 223.640625 C 273.171875 215.046875 258.265625 208.207031 242.519531 203.398438 C 225.175781 198.105469 206.691406 195.25 187.484375 195.25 L 187.414062 195.25 C 168.214844 195.25 149.746094 198.113281 132.378906 203.398438 C 116.636719 208.207031 101.726562 215.046875 87.976562 223.640625 C 100.226562 244.4375 114.6875 263.898438 131.179688 281.683594 C 144.003906 295.523438 158.070312 308.371094 173.21875 319.996094 L 173.242188 320.015625 C 173.773438 320.417969 174.308594 320.835938 174.855469 321.238281 L 175.414062 321.65625 C 175.8125 321.964844 176.207031 322.25 176.609375 322.558594 L 177.476562 323.203125 Z M 187.46875 39.457031 L 42.941406 84.984375 C 47.238281 129.589844 60.285156 172.265625 80.789062 210.839844 C 95.402344 201.78125 111.308594 194.539062 128.160156 189.378906 C 135.554688 187.144531 143.105469 185.28125 150.8125 183.859375 C 147.535156 181.601562 144.457031 179.050781 141.644531 176.238281 C 129.90625 164.5 122.664062 148.316406 122.664062 130.414062 C 122.664062 112.515625 129.90625 96.332031 141.644531 84.589844 C 153.363281 72.875 169.570312 65.609375 187.46875 65.609375 C 205.367188 65.609375 221.554688 72.875 233.292969 84.589844 C 245.011719 96.332031 252.273438 112.515625 252.273438 130.414062 C 252.273438 148.316406 245.011719 164.5 233.292969 176.238281 C 230.457031 179.050781 227.402344 181.59375 224.101562 183.859375 C 231.808594 185.273438 239.382812 187.136719 246.757812 189.378906 C 263.628906 194.539062 279.511719 201.78125 294.125 210.839844 C 314.628906 172.257812 327.675781 129.589844 331.972656 84.984375 Z M 371.128906 57.859375 L 187.46875 0 L 3.792969 57.867188 C 4.722656 124.039062 22.753906 186.023438 53.691406 239.601562 C 85.890625 295.386719 132.09375 342.113281 187.476562 375 C 242.859375 342.113281 289.039062 295.386719 321.238281 239.601562 C 352.175781 186.03125 370.222656 124.039062 371.136719 57.867188 Z M 155.332031 135.144531 C 152.472656 132.285156 152.472656 127.640625 155.332031 124.78125 C 158.214844 121.921875 162.835938 121.921875 165.71875 124.78125 L 178.789062 137.851562 L 209.21875 107.445312 C 212.078125 104.585938 216.722656 104.585938 219.582031 107.445312 C 222.441406 110.304688 222.441406 114.949219 219.582031 117.808594 L 183.96875 153.425781 C 181.109375 156.285156 176.464844 156.285156 173.605469 153.425781 L 155.332031 135.152344 Z M 155.332031 135.144531 " fill-opacity="1" fill-rule="nonzero"/></g></svg>