<svg xmlns="http://www.w3.org/2000/svg" xmlns:xlink="http://www.w3.org/1999/xlink" width="500" zoomAndPan="magnify" viewBox="0 0 375 374.999991" height="500" preserveAspectRatio="xMidYMid meet" version="1.0"><defs><clipPath id="536fffa11c"><path d="M 58.875 56.25 L 316.125 56.25 L 316.125 318.75 L 58.875 318.75 Z M 58.875 56.25 " clip-rule="nonzero"/></clipPath></defs><g clip-path="url(#536fffa11c)"><path fill="#3b82f6" d="M 212.285156 122.742188 C 205.941406 116.398438 197.167969 112.460938 187.476562 112.460938 C 177.789062 112.460938 169.011719 116.398438 162.65625 122.742188 C 156.316406 129.097656 152.378906 137.871094 152.378906 147.5625 C 152.378906 157.25 156.316406 166.027344 162.65625 172.382812 C 168.996094 178.726562 177.773438 182.648438 187.445312 182.648438 L 187.496094 182.648438 C 197.167969 182.648438 205.941406 178.726562 212.285156 172.382812 C 218.640625 166.027344 222.5625 157.25 222.5625 147.5625 C 222.5625 137.871094 218.640625 129.097656 212.285156 122.742188 Z M 184.859375 285.671875 C 185.277344 285.964844 185.699219 286.261719 186.113281 286.554688 M 79.320312 107.203125 L 185.882812 73.621094 C 186.863281 73.3125 187.945312 73.28125 189 73.605469 L 295.421875 107.136719 C 297.78125 107.761719 299.417969 109.988281 299.21875 112.5 C 296.382812 148.417969 285.75 182.738281 268.585938 213.371094 C 268.527344 213.496094 268.460938 213.621094 268.386719 213.746094 C 258.945312 230.515625 247.535156 246.171875 234.375 260.390625 C 221.367188 274.417969 206.65625 287.007812 190.410156 297.863281 C 190.210938 298.003906 190.019531 298.109375 189.820312 298.21875 L 189.773438 298.234375 L 189.738281 298.25 L 189.679688 298.285156 L 189.664062 298.300781 C 188.964844 298.625 188.226562 298.796875 187.476562 298.796875 L 187.386719 298.78125 C 186.671875 298.78125 185.957031 298.609375 185.292969 298.300781 L 185.277344 298.300781 L 185.226562 298.265625 L 185.152344 298.234375 L 185.136719 298.21875 C 184.9375 298.109375 184.734375 298.003906 184.53125 297.863281 C 184.113281 297.582031 183.691406 297.289062 183.273438 297.007812 L 183.101562 296.898438 C 182.667969 296.605469 182.234375 296.308594 181.796875 296 L 181.628906 295.890625 C 181.195312 295.601562 180.773438 295.300781 180.34375 294.992188 L 180.175781 294.886719 C 179.742188 294.578125 179.308594 294.265625 178.855469 293.957031 L 178.746094 293.878906 C 178.3125 293.570312 177.863281 293.246094 177.425781 292.933594 L 177.300781 292.855469 C 176.851562 292.53125 176.402344 292.191406 175.953125 291.867188 L 175.921875 291.851562 C 163.058594 282.441406 151.226562 271.898438 140.578125 260.394531 C 127.371094 246.152344 115.945312 230.445312 106.488281 213.640625 C 106.441406 213.566406 106.414062 213.484375 106.363281 213.394531 C 89.1875 182.761719 78.550781 148.421875 75.714844 112.503906 L 75.730469 112.503906 C 75.546875 110.160156 76.988281 107.933594 79.3125 107.203125 Z M 180.488281 282.484375 L 181.109375 282.949219 C 181.390625 283.152344 181.683594 283.367188 181.964844 283.574219 L 182.289062 283.804688 C 182.632812 284.070312 182.988281 284.320312 183.34375 284.578125 L 183.59375 284.753906 C 183.96875 285.035156 184.351562 285.292969 184.742188 285.574219 L 184.789062 285.609375 L 184.789062 285.625 L 184.867188 285.671875 C 185.28125 285.964844 185.703125 286.261719 186.121094 286.554688 L 186.136719 286.554688 C 186.585938 286.878906 187.035156 287.1875 187.484375 287.5 C 187.933594 287.191406 188.382812 286.878906 188.832031 286.554688 C 189.246094 286.261719 189.667969 285.964844 190.101562 285.671875 L 190.179688 285.609375 L 190.226562 285.574219 C 190.617188 285.292969 190.984375 285.035156 191.375 284.753906 L 191.621094 284.570312 C 191.964844 284.335938 192.289062 284.085938 192.613281 283.855469 L 193.046875 283.546875 C 193.308594 283.347656 193.570312 283.140625 193.835938 282.957031 L 194.484375 282.476562 L 195.074219 282.042969 C 195.324219 281.84375 195.589844 281.652344 195.832031 281.46875 L 196.328125 281.09375 C 196.671875 280.832031 197.011719 280.570312 197.351562 280.304688 L 197.492188 280.214844 C 208.082031 272.078125 217.894531 263.101562 226.871094 253.429688 C 238.402344 240.980469 248.527344 227.351562 257.113281 212.796875 C 247.472656 206.78125 237.035156 201.992188 226.015625 198.628906 C 213.875 194.921875 200.933594 192.925781 187.488281 192.925781 L 187.441406 192.925781 C 174 192.925781 161.070312 194.929688 148.914062 198.628906 C 137.894531 201.992188 127.457031 206.78125 117.832031 212.796875 C 126.410156 227.355469 136.53125 240.980469 148.078125 253.429688 C 157.050781 263.117188 166.898438 272.109375 177.503906 280.246094 L 177.519531 280.261719 C 177.890625 280.542969 178.265625 280.835938 178.648438 281.117188 L 179.039062 281.410156 C 179.320312 281.625 179.597656 281.824219 179.878906 282.042969 L 180.484375 282.492188 Z M 187.476562 83.867188 L 86.308594 115.738281 C 89.316406 146.960938 98.449219 176.835938 112.800781 203.839844 C 123.03125 197.496094 134.167969 192.429688 145.960938 188.816406 C 151.136719 187.25 156.425781 185.949219 161.816406 184.953125 C 159.523438 183.371094 157.371094 181.585938 155.402344 179.617188 C 147.183594 171.398438 142.113281 160.070312 142.113281 147.539062 C 142.113281 135.011719 147.183594 123.683594 155.402344 115.464844 C 163.601562 107.261719 174.949219 102.175781 187.476562 102.175781 C 200.007812 102.175781 211.335938 107.261719 219.554688 115.464844 C 227.757812 123.683594 232.84375 135.011719 232.84375 147.539062 C 232.84375 160.070312 227.757812 171.398438 219.554688 179.617188 C 217.570312 181.585938 215.433594 183.367188 213.121094 184.953125 C 218.515625 185.941406 223.816406 187.246094 228.980469 188.816406 C 240.789062 192.429688 251.90625 197.496094 262.136719 203.839844 C 276.492188 176.832031 285.625 146.960938 288.632812 115.738281 Z M 316.039062 96.75 L 187.476562 56.25 L 58.90625 96.753906 C 59.554688 143.078125 72.175781 186.464844 93.835938 223.96875 C 116.371094 263.019531 148.714844 295.730469 187.484375 318.75 C 226.253906 295.730469 258.578125 263.019531 281.117188 223.96875 C 302.773438 186.472656 315.40625 143.078125 316.042969 96.753906 Z M 164.984375 150.851562 C 162.980469 148.851562 162.980469 145.597656 164.984375 143.597656 C 167 141.59375 170.234375 141.59375 172.253906 143.597656 L 181.402344 152.746094 L 202.703125 131.460938 C 204.703125 129.460938 207.957031 129.460938 209.957031 131.460938 C 211.960938 133.464844 211.960938 136.714844 209.957031 138.714844 L 185.027344 163.648438 C 183.027344 165.648438 179.773438 165.648438 177.773438 163.648438 L 164.984375 150.855469 Z M 164.984375 150.851562 " fill-opacity="1" fill-rule="nonzero"/></g></svg>