<svg xmlns="http://www.w3.org/2000/svg" xmlns:xlink="http://www.w3.org/1999/xlink" width="500" zoomAndPan="magnify" viewBox="0 0 375 374.999991" height="500" preserveAspectRatio="xMidYMid meet" version="1.0"><defs><clipPath id="d572d0aeb9"><path d="M 0.195312 7 L 374.445312 7 L 374.445312 368.25 L 0.195312 368.25 Z M 0.195312 7 " clip-rule="nonzero"/></clipPath></defs><g clip-path="url(#d572d0aeb9)"><path fill="#ffffff" d="M 372.632812 178.601562 L 337.066406 214.167969 C 335.65625 215.578125 333.625 215.988281 331.757812 215.226562 C 329.894531 214.457031 328.753906 212.742188 328.753906 210.730469 L 328.753906 197.671875 C 328.753906 194.972656 326.558594 192.800781 323.882812 192.800781 L 211.0625 192.800781 C 211.871094 187.082031 212.246094 181.210938 212.246094 175.164062 C 212.246094 169.15625 211.769531 163.269531 210.855469 157.527344 L 323.875 157.527344 C 326.550781 157.527344 328.746094 155.335938 328.746094 152.636719 L 328.746094 139.578125 C 328.746094 137.566406 329.886719 135.847656 331.75 135.082031 C 333.617188 134.3125 335.648438 134.730469 337.058594 136.140625 L 372.625 171.707031 C 374.535156 173.605469 374.535156 176.691406 372.632812 178.601562 Z M 100.300781 75.261719 C 45.148438 75.261719 0.421875 119.988281 0.421875 175.164062 C 0.421875 217.214844 19.921875 232.375 39.65625 255.480469 C 45.476562 262.300781 49.605469 269.632812 52.070312 277.597656 L 73.398438 277.597656 L 73.398438 207.726562 L 61.8125 207.726562 C 55.324219 207.726562 49.417969 205.070312 45.125 200.777344 C 40.855469 196.507812 38.199219 190.601562 38.199219 184.09375 C 38.199219 177.585938 40.855469 171.675781 45.125 167.40625 C 49.417969 163.113281 55.324219 160.460938 61.8125 160.460938 C 68.320312 160.460938 74.226562 163.113281 78.519531 167.40625 C 82.789062 171.675781 85.441406 177.585938 85.441406 184.09375 L 85.441406 195.660156 L 115.164062 195.660156 L 115.164062 184.09375 C 115.164062 177.585938 117.820312 171.675781 122.113281 167.40625 C 126.382812 163.113281 132.289062 160.460938 138.796875 160.460938 C 145.304688 160.460938 151.214844 163.113281 155.484375 167.40625 C 159.777344 171.675781 162.429688 177.585938 162.429688 184.09375 C 162.429688 190.601562 159.777344 196.507812 155.484375 200.777344 C 151.214844 205.070312 145.304688 207.726562 138.796875 207.726562 L 127.230469 207.726562 L 127.230469 277.597656 L 148.539062 277.597656 C 151 269.632812 155.125 262.300781 160.953125 255.480469 C 180.6875 232.367188 200.1875 217.214844 200.1875 175.164062 C 200.179688 119.988281 155.476562 75.261719 100.300781 75.261719 Z M 146.957031 192.261719 C 149.050781 190.167969 150.359375 187.265625 150.359375 184.09375 C 150.359375 180.917969 149.050781 178.015625 146.957031 175.925781 C 144.867188 173.8125 141.964844 172.523438 138.789062 172.523438 C 135.617188 172.523438 132.714844 173.8125 130.625 175.925781 C 128.511719 178.015625 127.222656 180.917969 127.222656 184.09375 L 127.222656 195.660156 L 138.789062 195.660156 C 141.964844 195.660156 144.867188 194.351562 146.957031 192.261719 Z M 85.441406 207.726562 L 85.441406 277.597656 L 115.164062 277.597656 L 115.164062 207.726562 Z M 54.828125 347.734375 C 54.828125 359.007812 64.046875 368.25 75.34375 368.25 L 125.277344 368.25 C 136.554688 368.25 145.773438 359.007812 145.773438 347.734375 L 145.773438 339.257812 L 54.828125 339.257812 Z M 61.8125 172.523438 C 58.636719 172.523438 55.757812 173.8125 53.644531 175.925781 C 51.550781 178.015625 50.242188 180.917969 50.242188 184.09375 C 50.242188 187.265625 51.550781 190.167969 53.644531 192.261719 C 55.757812 194.351562 58.636719 195.660156 61.8125 195.660156 L 73.398438 195.660156 L 73.398438 184.09375 C 73.398438 180.917969 72.089844 178.015625 70 175.925781 C 67.886719 173.8125 65.007812 172.523438 61.8125 172.523438 Z M 148.675781 289.65625 L 51.925781 289.65625 C 41.601562 289.65625 33.148438 298.09375 33.148438 308.429688 C 33.148438 318.753906 41.601562 327.207031 51.925781 327.207031 L 148.675781 327.207031 C 159.015625 327.207031 167.453125 318.75 167.453125 308.429688 C 167.453125 298.09375 159.023438 289.65625 148.675781 289.65625 Z M 244.5 131.410156 C 245.039062 133.398438 247.109375 134.605469 249.097656 134.066406 L 266.96875 129.273438 C 268.980469 128.734375 270.179688 126.664062 269.644531 124.652344 L 238.898438 9.988281 C 238.378906 7.976562 236.289062 6.777344 234.296875 7.3125 L 216.433594 12.101562 C 214.425781 12.644531 213.226562 14.710938 213.757812 16.722656 Z M 266.96875 221.03125 L 249.097656 216.242188 C 247.109375 215.703125 245.03125 216.910156 244.5 218.917969 L 213.757812 333.578125 C 213.21875 335.585938 214.425781 337.65625 216.433594 338.199219 L 234.296875 342.988281 C 236.289062 343.527344 238.378906 342.320312 238.898438 340.3125 L 269.636719 225.652344 C 270.179688 223.644531 268.972656 221.566406 266.96875 221.03125 Z M 319.007812 90.246094 L 328.496094 80.753906 C 330.835938 78.390625 330.835938 74.574219 328.496094 72.234375 C 326.136719 69.875 322.320312 69.875 319.980469 72.234375 L 310.464844 81.726562 C 308.125 84.089844 308.125 87.90625 310.464844 90.246094 C 312.835938 92.605469 316.644531 92.605469 319.007812 90.246094 Z M 322.613281 111.257812 C 323.480469 114.46875 326.78125 116.378906 329.988281 115.527344 L 342.96875 112.046875 C 346.179688 111.199219 348.085938 107.902344 347.214844 104.691406 C 346.367188 101.484375 343.070312 99.574219 339.859375 100.421875 L 326.882812 103.902344 C 323.671875 104.75 321.761719 108.050781 322.613281 111.257812 Z M 289.453125 78.097656 C 292.660156 78.96875 295.980469 77.0625 296.828125 73.851562 L 300.308594 60.878906 C 301.160156 57.671875 299.25 54.371094 296.039062 53.503906 C 292.832031 52.652344 289.53125 54.5625 288.683594 57.773438 L 285.203125 70.742188 C 284.332031 73.953125 286.242188 77.25 289.453125 78.097656 Z M 319.007812 260.054688 C 316.644531 257.695312 312.828125 257.695312 310.464844 260.054688 C 308.125 262.394531 308.125 266.210938 310.464844 268.574219 L 319.980469 278.066406 C 322.320312 280.425781 326.136719 280.425781 328.496094 278.066406 C 330.835938 275.726562 330.835938 271.910156 328.496094 269.546875 Z M 342.96875 238.25 L 329.988281 234.769531 C 326.777344 233.921875 323.480469 235.832031 322.613281 239.042969 C 321.761719 242.25 323.671875 245.550781 326.882812 246.398438 L 339.859375 249.878906 C 343.070312 250.726562 346.367188 248.816406 347.214844 245.609375 C 348.085938 242.417969 346.183594 239.101562 342.96875 238.25 Z M 296.828125 276.449219 C 295.980469 273.238281 292.660156 271.332031 289.453125 272.199219 C 286.242188 273.050781 284.332031 276.347656 285.203125 279.558594 L 288.683594 292.527344 C 289.53125 295.738281 292.832031 297.644531 296.039062 296.796875 C 299.25 295.929688 301.160156 292.628906 300.308594 289.421875 Z M 296.828125 276.449219 " fill-opacity="1" fill-rule="nonzero"/></g></svg>