<svg xmlns="http://www.w3.org/2000/svg" xmlns:xlink="http://www.w3.org/1999/xlink" width="500" zoomAndPan="magnify" viewBox="0 0 375 374.999991" height="500" preserveAspectRatio="xMidYMid meet" version="1.0"><defs><clipPath id="56d38291bd"><path d="M 112.5 93.75 L 262.5 93.75 L 262.5 281.25 L 112.5 281.25 Z M 112.5 93.75 " clip-rule="nonzero"/></clipPath><clipPath id="2764924b65"><path d="M 112.5 93.75 L 262.5 93.75 L 262.5 281.25 L 112.5 281.25 Z M 112.5 93.75 " clip-rule="nonzero"/></clipPath></defs><g clip-path="url(#56d38291bd)"><path fill="#003d8f" d="M 216.230469 93.921875 L 137.65625 93.921875 C 123.769531 93.921875 112.46875 105.21875 112.46875 119.105469 L 112.46875 255.894531 C 112.46875 269.78125 123.769531 281.078125 137.65625 281.078125 L 237.347656 281.078125 C 251.234375 281.078125 262.53125 269.78125 262.53125 255.894531 L 262.53125 145.671875 Z M 219.902344 117.929688 L 241.054688 141.574219 L 219.902344 141.574219 Z M 237.347656 267.804688 L 137.65625 267.804688 C 131.085938 267.804688 125.742188 262.460938 125.742188 255.894531 L 125.742188 119.105469 C 125.742188 112.539062 131.085938 107.195312 137.65625 107.195312 L 206.625 107.195312 L 206.625 154.84375 L 249.257812 154.84375 L 249.257812 255.894531 C 249.257812 262.460938 243.914062 267.804688 237.347656 267.804688 Z M 237.347656 267.804688 " fill-opacity="1" fill-rule="nonzero"/></g><path fill="#003d8f" d="M 139.992188 228.097656 L 235.007812 228.097656 L 235.007812 241.375 L 139.992188 241.375 Z M 139.992188 228.097656 " fill-opacity="1" fill-rule="nonzero"/><path fill="#003d8f" d="M 139.992188 199.253906 L 235.007812 199.253906 L 235.007812 212.527344 L 139.992188 212.527344 Z M 139.992188 199.253906 " fill-opacity="1" fill-rule="nonzero"/><path fill="#003d8f" d="M 139.992188 170.414062 L 235.007812 170.414062 L 235.007812 183.6875 L 139.992188 183.6875 Z M 139.992188 170.414062 " fill-opacity="1" fill-rule="nonzero"/><g clip-path="url(#2764924b65)"><path fill="#003d8f" d="M 216.230469 93.921875 L 137.65625 93.921875 C 123.769531 93.921875 112.46875 105.21875 112.46875 119.105469 L 112.46875 255.894531 C 112.46875 269.78125 123.769531 281.078125 137.65625 281.078125 L 237.347656 281.078125 C 251.234375 281.078125 262.53125 269.78125 262.53125 255.894531 L 262.53125 145.671875 Z M 219.902344 117.929688 L 241.054688 141.574219 L 219.902344 141.574219 Z M 237.347656 267.804688 L 137.65625 267.804688 C 131.085938 267.804688 125.742188 262.460938 125.742188 255.894531 L 125.742188 119.105469 C 125.742188 112.539062 131.085938 107.195312 137.65625 107.195312 L 206.625 107.195312 L 206.625 154.84375 L 249.257812 154.84375 L 249.257812 255.894531 C 249.257812 262.460938 243.914062 267.804688 237.347656 267.804688 Z M 237.347656 267.804688 " fill-opacity="1" fill-rule="nonzero"/></g><path fill="#003d8f" d="M 139.992188 228.097656 L 235.007812 228.097656 L 235.007812 241.375 L 139.992188 241.375 Z M 139.992188 228.097656 " fill-opacity="1" fill-rule="nonzero"/><path fill="#003d8f" d="M 139.992188 199.253906 L 235.007812 199.253906 L 235.007812 212.527344 L 139.992188 212.527344 Z M 139.992188 199.253906 " fill-opacity="1" fill-rule="nonzero"/><path fill="#003d8f" d="M 139.992188 170.414062 L 235.007812 170.414062 L 235.007812 183.6875 L 139.992188 183.6875 Z M 139.992188 170.414062 " fill-opacity="1" fill-rule="nonzero"/></svg>