<svg xmlns="http://www.w3.org/2000/svg" xmlns:xlink="http://www.w3.org/1999/xlink" width="500" zoomAndPan="magnify" viewBox="0 0 375 374.999991" height="500" preserveAspectRatio="xMidYMid meet" version="1.0"><defs><clipPath id="744a6f8e49"><path d="M 122 104 L 252 104 L 252 281.25 L 122 281.25 Z M 122 104 " clip-rule="nonzero"/></clipPath><clipPath id="2ec6b50523"><path d="M 169 93.75 L 281.367188 93.75 L 281.367188 173 L 169 173 Z M 169 93.75 " clip-rule="nonzero"/></clipPath><clipPath id="0acbd8c70c"><path d="M 93.867188 94 L 137 94 L 137 142 L 93.867188 142 Z M 93.867188 94 " clip-rule="nonzero"/></clipPath></defs><g clip-path="url(#744a6f8e49)"><path fill="#003d8f" d="M 225.4375 162.597656 C 226.171875 162.597656 226.902344 162.449219 227.488281 162.011719 L 249.460938 150.292969 C 250.925781 149.558594 251.804688 147.949219 251.804688 146.335938 L 251.804688 119.53125 C 251.804688 119.089844 251.660156 118.652344 251.511719 118.359375 C 251.367188 117.332031 250.78125 116.453125 249.902344 116.015625 L 227.488281 104.441406 C 226.171875 103.855469 224.707031 103.855469 223.386719 104.441406 L 200.828125 116.015625 C 199.949219 116.453125 199.363281 117.332031 199.21875 118.359375 C 199.21875 118.652344 199.070312 119.089844 199.070312 119.53125 L 199.070312 144.140625 L 198.925781 143.992188 C 197.753906 142.820312 196.289062 142.234375 194.824219 142.234375 C 193.210938 142.234375 191.746094 142.820312 190.722656 143.992188 L 164.5 169.921875 L 139.597656 169.921875 C 129.929688 169.921875 122.898438 177.390625 122.898438 187.792969 L 122.898438 222.65625 C 122.898438 226.023438 125.390625 228.515625 128.613281 228.515625 L 134.617188 228.515625 L 134.617188 274.070312 C 134.617188 278.027344 137.988281 281.25 141.796875 281.25 L 162.449219 281.25 C 166.40625 281.25 169.773438 278.027344 169.773438 273.925781 L 169.773438 189.550781 L 203.027344 156.445312 C 204.199219 155.273438 204.785156 153.808594 204.785156 152.34375 L 223.386719 162.304688 C 223.972656 162.449219 224.707031 162.597656 225.4375 162.597656 Z M 228.367188 154.980469 L 228.367188 132.273438 L 245.945312 123.339844 L 245.945312 145.605469 Z M 164.792969 186.179688 C 164.207031 186.765625 163.914062 187.5 163.914062 188.230469 L 163.914062 273.925781 C 163.914062 274.65625 163.328125 275.390625 162.449219 275.390625 L 155.125 275.390625 L 155.125 232.761719 C 155.125 231.152344 153.808594 229.832031 152.195312 229.832031 C 150.585938 229.832031 149.265625 231.152344 149.265625 232.761719 L 149.265625 275.390625 L 141.941406 275.390625 C 141.355469 275.390625 140.625 274.65625 140.625 273.925781 L 140.625 197.753906 C 140.625 196.140625 139.304688 194.824219 137.695312 194.824219 C 136.082031 194.824219 134.765625 196.140625 134.765625 197.753906 L 134.765625 222.65625 L 128.90625 222.65625 L 128.90625 187.792969 C 128.90625 181.933594 132.273438 175.78125 139.746094 175.78125 L 165.820312 175.78125 C 166.550781 175.78125 167.285156 175.488281 167.871094 174.902344 L 194.96875 148.09375 L 199.070312 152.195312 Z M 204.929688 123.339844 L 222.507812 132.273438 L 222.507812 154.980469 L 204.929688 145.605469 Z M 204.929688 123.339844 " fill-opacity="1" fill-rule="nonzero"/></g><g clip-path="url(#2ec6b50523)"><path fill="#003d8f" d="M 275.535156 93.75 L 175.339844 93.75 C 172.265625 93.75 169.773438 96.238281 169.773438 99.316406 L 169.773438 134.03125 C 173.289062 138.132812 175.632812 143.40625 175.632812 149.265625 L 175.632812 99.609375 L 275.242188 99.609375 L 275.242188 166.992188 L 200.683594 166.992188 L 194.824219 172.851562 L 275.535156 172.851562 C 278.613281 172.851562 281.101562 170.359375 281.101562 167.285156 L 281.101562 99.316406 C 281.101562 96.238281 278.613281 93.75 275.535156 93.75 Z M 275.535156 93.75 " fill-opacity="1" fill-rule="nonzero"/></g><path fill="#003d8f" d="M 152.195312 131.835938 C 142.527344 131.835938 134.617188 139.746094 134.617188 149.414062 C 134.617188 159.082031 142.527344 166.992188 152.195312 166.992188 C 161.863281 166.992188 169.773438 159.082031 169.773438 149.414062 C 169.773438 139.746094 161.863281 131.835938 152.195312 131.835938 Z M 152.195312 131.835938 " fill-opacity="1" fill-rule="nonzero"/><g clip-path="url(#0acbd8c70c)"><path fill="#003d8f" d="M 115.28125 94.1875 C 103.5625 94.1875 93.894531 102.832031 93.894531 113.523438 C 93.894531 122.753906 101.074219 130.664062 111.035156 132.421875 L 128.027344 141.210938 C 128.464844 141.355469 128.90625 141.503906 129.34375 141.503906 C 130.078125 141.503906 130.808594 141.210938 131.25 140.769531 C 132.128906 139.890625 132.421875 138.574219 131.980469 137.546875 L 128.464844 128.757812 C 133.59375 125.097656 136.523438 119.675781 136.523438 113.671875 C 136.667969 102.832031 127.148438 94.1875 115.28125 94.1875 Z M 115.28125 94.1875 " fill-opacity="1" fill-rule="nonzero"/></g></svg>