<svg xmlns="http://www.w3.org/2000/svg" xmlns:xlink="http://www.w3.org/1999/xlink" width="500" zoomAndPan="magnify" viewBox="0 0 375 374.999991" height="500" preserveAspectRatio="xMidYMid meet" version="1.0"><defs><clipPath id="cd8367bb00"><path d="M 93.75 93.75 L 281.25 93.75 L 281.25 281.25 L 93.75 281.25 Z M 93.75 93.75 " clip-rule="nonzero"/></clipPath></defs><g clip-path="url(#cd8367bb00)"><path fill="#003d8f" d="M 198.273438 203.855469 C 192.433594 210.273438 184.800781 213.957031 177.332031 213.957031 C 164.046875 213.957031 155.464844 205.136719 155.464844 191.492188 C 155.464844 182.414062 158.796875 173.84375 164.855469 167.367188 C 170.589844 161.234375 178.175781 157.714844 185.667969 157.714844 C 198.335938 157.714844 207.535156 167.332031 207.535156 180.578125 C 207.535156 188.902344 204.160156 197.386719 198.273438 203.855469 Z M 253.984375 119.371094 C 236.214844 102.851562 212.675781 93.75 187.703125 93.75 C 162.429688 93.75 138.746094 103.609375 121.011719 121.507812 C 103.433594 139.257812 93.75 162.765625 93.75 187.703125 C 93.75 240.164062 135.714844 281.257812 189.289062 281.257812 C 208.929688 281.257812 226.832031 276.402344 244.023438 266.417969 L 244.8125 265.957031 L 245.578125 265.195312 C 246.546875 264.261719 249.109375 261.78125 249.109375 257.558594 C 249.109375 252.027344 244.523438 247.355469 239.101562 247.355469 C 237.785156 247.355469 235.652344 247.652344 233.96875 248.496094 L 233.613281 248.6875 C 219.277344 256.933594 206.023438 260.453125 189.289062 260.453125 C 168.414062 260.453125 149.386719 252.914062 135.722656 239.222656 C 122.328125 225.808594 114.953125 207.511719 114.953125 187.703125 C 114.953125 168.039062 122.328125 149.683594 135.71875 136.011719 C 149.273438 122.175781 167.730469 114.558594 187.703125 114.558594 C 207.328125 114.558594 225.757812 121.769531 239.605469 134.863281 C 252.601562 147.152344 260.054688 163.375 260.054688 179.367188 C 260.054688 190.808594 257.585938 200.042969 252.917969 206.074219 C 249.351562 210.683594 244.511719 213.21875 239.300781 213.21875 C 232.496094 213.21875 229.460938 210.433594 229.460938 204.175781 C 229.460938 202.332031 229.855469 198.253906 230.742188 193.304688 L 237.890625 153.1875 C 238.632812 148.925781 237.519531 144.652344 234.835938 141.460938 C 232.246094 138.382812 228.449219 136.617188 224.417969 136.617188 C 219.1875 136.617188 214.792969 139.335938 212.339844 143.90625 C 205.433594 138.273438 196.894531 135.425781 186.90625 135.425781 C 173.929688 135.425781 160.679688 141.347656 150.558594 151.675781 C 139.902344 162.542969 134.035156 176.820312 134.035156 191.871094 C 134.035156 204.109375 138.507812 215.214844 146.621094 223.144531 C 154.460938 230.800781 165.105469 235.019531 176.589844 235.019531 C 188.394531 235.019531 198.675781 231.019531 207.949219 222.804688 C 214.46875 230.703125 224.710938 235.019531 237.117188 235.019531 C 248.917969 235.019531 259.816406 230.035156 267.792969 220.976562 C 276.601562 210.984375 281.257812 196.59375 281.257812 179.367188 C 281.257812 157.355469 271.316406 135.488281 253.984375 119.371094 " fill-opacity="1" fill-rule="nonzero"/></g></svg>