<svg xmlns="http://www.w3.org/2000/svg" xmlns:xlink="http://www.w3.org/1999/xlink" width="500" zoomAndPan="magnify" viewBox="0 0 375 374.999991" height="500" preserveAspectRatio="xMidYMid meet" version="1.0"><defs><clipPath id="1988122d1c"><path d="M 99.609375 175 L 275.109375 175 L 275.109375 281.25 L 99.609375 281.25 Z M 99.609375 175 " clip-rule="nonzero"/></clipPath><clipPath id="eaae06ec89"><path d="M 99.609375 111 L 275.109375 111 L 275.109375 165 L 99.609375 165 Z M 99.609375 111 " clip-rule="nonzero"/></clipPath><clipPath id="7209c6972e"><path d="M 140 93.75 L 153 93.75 L 153 135 L 140 135 Z M 140 93.75 " clip-rule="nonzero"/></clipPath><clipPath id="2283459fe1"><path d="M 222 93.75 L 235 93.75 L 235 135 L 222 135 Z M 222 93.75 " clip-rule="nonzero"/></clipPath></defs><g clip-path="url(#1988122d1c)"><path fill="#003d8f" d="M 257.8125 281.25 L 117.1875 281.25 C 116.613281 281.25 116.039062 281.222656 115.464844 281.164062 C 114.890625 281.109375 114.324219 281.023438 113.757812 280.914062 C 113.195312 280.800781 112.636719 280.660156 112.085938 280.492188 C 111.535156 280.324219 110.992188 280.132812 110.460938 279.910156 C 109.929688 279.691406 109.410156 279.445312 108.902344 279.175781 C 108.394531 278.902344 107.898438 278.605469 107.421875 278.289062 C 106.941406 277.96875 106.480469 277.625 106.035156 277.261719 C 105.589844 276.894531 105.164062 276.507812 104.757812 276.101562 C 104.351562 275.695312 103.964844 275.269531 103.597656 274.824219 C 103.234375 274.378906 102.890625 273.917969 102.570312 273.4375 C 102.253906 272.960938 101.957031 272.464844 101.683594 271.957031 C 101.414062 271.449219 101.167969 270.929688 100.949219 270.398438 C 100.726562 269.867188 100.535156 269.324219 100.367188 268.773438 C 100.199219 268.222656 100.058594 267.664062 99.945312 267.101562 C 99.835938 266.535156 99.75 265.96875 99.695312 265.394531 C 99.636719 264.820312 99.609375 264.246094 99.609375 263.671875 L 99.609375 175.78125 L 111.328125 175.78125 L 111.328125 263.671875 C 111.328125 264.054688 111.367188 264.4375 111.441406 264.816406 C 111.515625 265.191406 111.625 265.558594 111.773438 265.914062 C 111.921875 266.269531 112.101562 266.605469 112.316406 266.925781 C 112.53125 267.246094 112.773438 267.542969 113.042969 267.816406 C 113.316406 268.085938 113.613281 268.328125 113.933594 268.542969 C 114.253906 268.757812 114.589844 268.9375 114.945312 269.085938 C 115.300781 269.234375 115.667969 269.34375 116.042969 269.417969 C 116.421875 269.492188 116.804688 269.53125 117.1875 269.53125 L 257.8125 269.53125 C 258.195312 269.53125 258.578125 269.492188 258.957031 269.417969 C 259.332031 269.34375 259.699219 269.234375 260.054688 269.085938 C 260.410156 268.9375 260.746094 268.757812 261.066406 268.542969 C 261.386719 268.328125 261.683594 268.085938 261.957031 267.816406 C 262.226562 267.542969 262.46875 267.246094 262.683594 266.925781 C 262.898438 266.605469 263.078125 266.269531 263.226562 265.914062 C 263.371094 265.558594 263.484375 265.191406 263.558594 264.816406 C 263.632812 264.4375 263.671875 264.054688 263.671875 263.671875 L 263.671875 175.78125 L 275.390625 175.78125 L 275.390625 263.671875 C 275.390625 264.246094 275.363281 264.820312 275.304688 265.394531 C 275.25 265.96875 275.164062 266.535156 275.054688 267.101562 C 274.941406 267.664062 274.800781 268.222656 274.632812 268.773438 C 274.464844 269.324219 274.273438 269.867188 274.050781 270.398438 C 273.832031 270.929688 273.585938 271.449219 273.316406 271.957031 C 273.042969 272.464844 272.746094 272.960938 272.429688 273.4375 C 272.109375 273.917969 271.765625 274.378906 271.402344 274.824219 C 271.035156 275.269531 270.648438 275.695312 270.242188 276.101562 C 269.835938 276.507812 269.410156 276.894531 268.964844 277.261719 C 268.519531 277.625 268.058594 277.96875 267.578125 278.289062 C 267.101562 278.605469 266.605469 278.902344 266.097656 279.175781 C 265.589844 279.445312 265.070312 279.691406 264.539062 279.910156 C 264.007812 280.132812 263.464844 280.324219 262.914062 280.492188 C 262.363281 280.660156 261.804688 280.800781 261.242188 280.914062 C 260.675781 281.023438 260.109375 281.109375 259.535156 281.164062 C 258.960938 281.222656 258.386719 281.25 257.8125 281.25 Z M 257.8125 281.25 " fill-opacity="1" fill-rule="nonzero"/></g><g clip-path="url(#eaae06ec89)"><path fill="#003d8f" d="M 269.53125 111.328125 L 240.234375 111.328125 L 240.234375 128.90625 C 240.234375 129.675781 240.160156 130.4375 240.007812 131.191406 C 239.859375 131.945312 239.636719 132.679688 239.34375 133.390625 C 239.046875 134.101562 238.6875 134.777344 238.257812 135.417969 C 237.832031 136.054688 237.347656 136.648438 236.800781 137.191406 C 236.257812 137.738281 235.664062 138.222656 235.027344 138.648438 C 234.386719 139.078125 233.710938 139.4375 233 139.734375 C 232.289062 140.027344 231.554688 140.25 230.800781 140.398438 C 230.046875 140.550781 229.285156 140.625 228.515625 140.625 C 227.746094 140.625 226.984375 140.550781 226.230469 140.398438 C 225.476562 140.25 224.742188 140.027344 224.03125 139.734375 C 223.320312 139.4375 222.644531 139.078125 222.003906 138.648438 C 221.363281 138.222656 220.773438 137.738281 220.230469 137.191406 C 219.683594 136.648438 219.199219 136.054688 218.773438 135.417969 C 218.34375 134.777344 217.984375 134.101562 217.6875 133.390625 C 217.394531 132.679688 217.171875 131.945312 217.023438 131.191406 C 216.871094 130.4375 216.796875 129.675781 216.796875 128.90625 L 216.796875 111.328125 L 158.203125 111.328125 L 158.203125 128.90625 C 158.203125 129.675781 158.128906 130.4375 157.976562 131.191406 C 157.828125 131.945312 157.605469 132.679688 157.3125 133.390625 C 157.015625 134.101562 156.65625 134.777344 156.226562 135.417969 C 155.800781 136.054688 155.316406 136.648438 154.769531 137.191406 C 154.226562 137.738281 153.632812 138.222656 152.996094 138.648438 C 152.355469 139.078125 151.679688 139.4375 150.96875 139.734375 C 150.257812 140.027344 149.523438 140.25 148.769531 140.398438 C 148.015625 140.550781 147.253906 140.625 146.484375 140.625 C 145.714844 140.625 144.953125 140.550781 144.199219 140.398438 C 143.445312 140.25 142.710938 140.027344 142 139.734375 C 141.289062 139.4375 140.613281 139.078125 139.972656 138.648438 C 139.335938 138.222656 138.742188 137.738281 138.199219 137.191406 C 137.652344 136.648438 137.167969 136.054688 136.742188 135.417969 C 136.3125 134.777344 135.953125 134.101562 135.65625 133.390625 C 135.363281 132.679688 135.140625 131.945312 134.992188 131.191406 C 134.839844 130.4375 134.765625 129.675781 134.765625 128.90625 L 134.765625 111.328125 L 105.46875 111.328125 C 105.085938 111.328125 104.703125 111.367188 104.324219 111.441406 C 103.949219 111.515625 103.582031 111.625 103.226562 111.773438 C 102.871094 111.921875 102.535156 112.101562 102.214844 112.316406 C 101.894531 112.53125 101.597656 112.773438 101.324219 113.042969 C 101.054688 113.316406 100.8125 113.613281 100.597656 113.933594 C 100.382812 114.253906 100.203125 114.589844 100.054688 114.945312 C 99.90625 115.300781 99.796875 115.667969 99.722656 116.042969 C 99.648438 116.421875 99.609375 116.804688 99.609375 117.1875 L 99.609375 164.0625 L 275.390625 164.0625 L 275.390625 117.1875 C 275.390625 116.804688 275.351562 116.421875 275.277344 116.042969 C 275.203125 115.667969 275.09375 115.300781 274.945312 114.945312 C 274.796875 114.589844 274.617188 114.253906 274.402344 113.933594 C 274.1875 113.613281 273.945312 113.316406 273.675781 113.042969 C 273.402344 112.773438 273.105469 112.53125 272.785156 112.316406 C 272.464844 112.101562 272.128906 111.921875 271.773438 111.773438 C 271.417969 111.625 271.050781 111.515625 270.675781 111.441406 C 270.296875 111.367188 269.914062 111.328125 269.53125 111.328125 Z M 269.53125 111.328125 " fill-opacity="1" fill-rule="nonzero"/></g><g clip-path="url(#7209c6972e)"><path fill="#003d8f" d="M 146.484375 134.765625 C 146.101562 134.765625 145.71875 134.726562 145.339844 134.652344 C 144.964844 134.578125 144.597656 134.46875 144.242188 134.320312 C 143.886719 134.171875 143.550781 133.992188 143.230469 133.777344 C 142.910156 133.5625 142.613281 133.320312 142.339844 133.050781 C 142.070312 132.777344 141.828125 132.480469 141.613281 132.160156 C 141.398438 131.839844 141.21875 131.503906 141.070312 131.148438 C 140.921875 130.792969 140.8125 130.425781 140.738281 130.050781 C 140.664062 129.671875 140.625 129.289062 140.625 128.90625 L 140.625 99.609375 C 140.625 99.226562 140.664062 98.84375 140.738281 98.464844 C 140.8125 98.089844 140.921875 97.722656 141.070312 97.367188 C 141.21875 97.011719 141.398438 96.675781 141.613281 96.355469 C 141.828125 96.035156 142.070312 95.738281 142.339844 95.464844 C 142.613281 95.195312 142.910156 94.953125 143.230469 94.738281 C 143.550781 94.523438 143.886719 94.34375 144.242188 94.195312 C 144.597656 94.046875 144.964844 93.9375 145.339844 93.863281 C 145.71875 93.789062 146.101562 93.75 146.484375 93.75 C 146.867188 93.75 147.25 93.789062 147.628906 93.863281 C 148.003906 93.9375 148.371094 94.046875 148.726562 94.195312 C 149.082031 94.34375 149.417969 94.523438 149.738281 94.738281 C 150.058594 94.953125 150.355469 95.195312 150.628906 95.464844 C 150.898438 95.738281 151.140625 96.035156 151.355469 96.355469 C 151.570312 96.675781 151.75 97.011719 151.898438 97.367188 C 152.046875 97.722656 152.15625 98.089844 152.230469 98.464844 C 152.304688 98.84375 152.34375 99.226562 152.34375 99.609375 L 152.34375 128.90625 C 152.34375 129.289062 152.304688 129.671875 152.230469 130.050781 C 152.15625 130.425781 152.046875 130.792969 151.898438 131.148438 C 151.75 131.503906 151.570312 131.839844 151.355469 132.160156 C 151.140625 132.480469 150.898438 132.777344 150.628906 133.050781 C 150.355469 133.320312 150.058594 133.5625 149.738281 133.777344 C 149.417969 133.992188 149.082031 134.171875 148.726562 134.320312 C 148.371094 134.46875 148.003906 134.578125 147.628906 134.652344 C 147.25 134.726562 146.867188 134.765625 146.484375 134.765625 Z M 146.484375 134.765625 " fill-opacity="1" fill-rule="nonzero"/></g><g clip-path="url(#2283459fe1)"><path fill="#003d8f" d="M 228.515625 134.765625 C 228.132812 134.765625 227.75 134.726562 227.371094 134.652344 C 226.996094 134.578125 226.628906 134.46875 226.273438 134.320312 C 225.917969 134.171875 225.582031 133.992188 225.261719 133.777344 C 224.941406 133.5625 224.644531 133.320312 224.371094 133.050781 C 224.101562 132.777344 223.859375 132.480469 223.644531 132.160156 C 223.429688 131.839844 223.25 131.503906 223.101562 131.148438 C 222.953125 130.792969 222.84375 130.425781 222.769531 130.050781 C 222.695312 129.671875 222.65625 129.289062 222.65625 128.90625 L 222.65625 99.609375 C 222.65625 99.226562 222.695312 98.84375 222.769531 98.464844 C 222.84375 98.089844 222.953125 97.722656 223.101562 97.367188 C 223.25 97.011719 223.429688 96.675781 223.644531 96.355469 C 223.859375 96.035156 224.101562 95.738281 224.371094 95.464844 C 224.644531 95.195312 224.941406 94.953125 225.261719 94.738281 C 225.582031 94.523438 225.917969 94.34375 226.273438 94.195312 C 226.628906 94.046875 226.996094 93.9375 227.371094 93.863281 C 227.75 93.789062 228.132812 93.75 228.515625 93.75 C 228.898438 93.75 229.28125 93.789062 229.660156 93.863281 C 230.035156 93.9375 230.402344 94.046875 230.757812 94.195312 C 231.113281 94.34375 231.449219 94.523438 231.769531 94.738281 C 232.089844 94.953125 232.386719 95.195312 232.660156 95.464844 C 232.929688 95.738281 233.171875 96.035156 233.386719 96.355469 C 233.601562 96.675781 233.78125 97.011719 233.929688 97.367188 C 234.078125 97.722656 234.1875 98.089844 234.261719 98.464844 C 234.335938 98.84375 234.375 99.226562 234.375 99.609375 L 234.375 128.90625 C 234.375 129.289062 234.335938 129.671875 234.261719 130.050781 C 234.1875 130.425781 234.078125 130.792969 233.929688 131.148438 C 233.78125 131.503906 233.601562 131.839844 233.386719 132.160156 C 233.171875 132.480469 232.929688 132.777344 232.660156 133.050781 C 232.386719 133.320312 232.089844 133.5625 231.769531 133.777344 C 231.449219 133.992188 231.113281 134.171875 230.757812 134.320312 C 230.402344 134.46875 230.035156 134.578125 229.660156 134.652344 C 229.28125 134.726562 228.898438 134.765625 228.515625 134.765625 Z M 228.515625 134.765625 " fill-opacity="1" fill-rule="nonzero"/></g><path fill="#003d8f" d="M 169.394531 249.023438 C 168.773438 249.019531 168.207031 248.84375 167.695312 248.496094 C 167.246094 248.164062 166.917969 247.742188 166.707031 247.222656 C 166.496094 246.707031 166.4375 246.175781 166.523438 245.625 L 169.921875 225.878906 L 156.09375 211.933594 C 155.714844 211.535156 155.464844 211.066406 155.351562 210.53125 C 155.234375 209.992188 155.269531 209.464844 155.449219 208.945312 C 155.605469 208.425781 155.890625 207.992188 156.304688 207.640625 C 156.71875 207.289062 157.195312 207.082031 157.734375 207.011719 L 176.484375 204.140625 L 184.863281 186.269531 C 185.089844 185.742188 185.441406 185.324219 185.921875 185.007812 C 186.402344 184.691406 186.925781 184.535156 187.5 184.535156 C 188.074219 184.535156 188.597656 184.691406 189.078125 185.007812 C 189.558594 185.324219 189.910156 185.742188 190.136719 186.269531 L 198.515625 204.140625 L 217.265625 207.011719 C 217.804688 207.082031 218.28125 207.289062 218.695312 207.640625 C 219.109375 207.992188 219.394531 208.425781 219.550781 208.945312 C 219.730469 209.464844 219.765625 209.992188 219.648438 210.53125 C 219.535156 211.066406 219.285156 211.535156 218.90625 211.933594 L 205.078125 225.878906 L 208.300781 245.625 C 208.386719 246.175781 208.328125 246.707031 208.117188 247.222656 C 207.90625 247.742188 207.578125 248.164062 207.128906 248.496094 C 206.617188 248.84375 206.050781 249.019531 205.429688 249.023438 C 204.929688 249.027344 204.460938 248.910156 204.023438 248.671875 L 187.5 239.414062 L 170.800781 248.671875 C 170.363281 248.910156 169.894531 249.027344 169.394531 249.023438 Z M 169.394531 249.023438 " fill-opacity="1" fill-rule="nonzero"/></svg>