<svg xmlns="http://www.w3.org/2000/svg" xmlns:xlink="http://www.w3.org/1999/xlink" width="500" zoomAndPan="magnify" viewBox="0 0 375 374.999991" height="500" preserveAspectRatio="xMidYMid meet" version="1.0"><defs><clipPath id="e0dc7ed45d"><path d="M 93.75 127 L 281.25 127 L 281.25 248 L 93.75 248 Z M 93.75 127 " clip-rule="nonzero"/></clipPath></defs><g clip-path="url(#e0dc7ed45d)"><path fill="#003d8f" d="M 270.398438 167.800781 C 276.757812 166.460938 281.246094 161.101562 281.246094 154.671875 L 281.246094 140.613281 C 281.246094 133.246094 275.21875 127.21875 267.851562 127.21875 L 227.675781 127.21875 L 227.675781 154.003906 C 227.675781 157.6875 224.660156 160.699219 220.976562 160.699219 C 217.296875 160.699219 214.28125 157.6875 214.28125 154.003906 L 214.28125 127.21875 L 113.835938 127.21875 C 102.785156 127.21875 93.746094 136.257812 93.746094 147.308594 L 93.746094 227.664062 C 93.746094 238.714844 102.785156 247.753906 113.835938 247.753906 L 214.28125 247.753906 L 214.28125 220.96875 C 214.28125 217.285156 217.296875 214.273438 220.976562 214.273438 C 224.660156 214.273438 227.675781 217.285156 227.675781 220.96875 L 227.675781 247.753906 L 267.851562 247.753906 C 275.21875 247.753906 281.246094 241.726562 281.246094 234.363281 L 281.246094 220.300781 C 281.246094 213.871094 276.757812 208.511719 270.398438 207.175781 C 261.15625 205.230469 254.460938 196.929688 254.460938 187.488281 C 254.460938 178.042969 261.15625 169.742188 270.398438 167.800781 Z M 142.964844 160.699219 C 147.851562 160.699219 151.871094 164.652344 151.871094 169.539062 C 151.871094 174.429688 147.851562 178.445312 142.964844 178.445312 C 138.074219 178.445312 134.125 174.429688 134.125 169.539062 C 134.125 164.652344 138.078125 160.699219 142.964844 160.699219 Z M 142.964844 211.726562 C 141.289062 211.726562 139.550781 211.058594 138.277344 209.71875 C 135.664062 207.105469 135.664062 202.886719 138.277344 200.277344 L 173.703125 164.851562 C 176.3125 162.242188 180.53125 162.242188 183.144531 164.851562 C 185.753906 167.464844 185.753906 171.683594 183.144531 174.292969 L 147.71875 209.71875 C 146.445312 211.058594 144.707031 211.726562 142.964844 211.726562 Z M 178.457031 213.871094 C 173.566406 213.871094 169.550781 209.917969 169.550781 205.03125 C 169.550781 200.074219 173.566406 196.125 178.457031 196.125 C 183.34375 196.125 187.296875 200.074219 187.296875 205.03125 C 187.296875 209.917969 183.34375 213.871094 178.457031 213.871094 Z M 227.675781 194.183594 C 227.675781 197.867188 224.660156 200.878906 220.976562 200.878906 C 217.296875 200.878906 214.28125 197.867188 214.28125 194.183594 L 214.28125 180.789062 C 214.28125 177.105469 217.296875 174.09375 220.976562 174.09375 C 224.660156 174.09375 227.675781 177.105469 227.675781 180.789062 Z M 227.675781 194.183594 " fill-opacity="1" fill-rule="nonzero"/></g></svg>