<svg xmlns="http://www.w3.org/2000/svg" xmlns:xlink="http://www.w3.org/1999/xlink" width="500" zoomAndPan="magnify" viewBox="0 0 375 374.999991" height="500" preserveAspectRatio="xMidYMid meet" version="1.0"><defs><clipPath id="8587e6ce52"><path d="M 93.75 93.75 L 281 93.75 L 281 281 L 93.75 281 Z M 93.75 93.75 " clip-rule="nonzero"/></clipPath></defs><g clip-path="url(#8587e6ce52)"><path fill="#003d8f" d="M 237.027344 117.378906 C 234.941406 117.257812 233.347656 115.464844 233.472656 113.375 C 233.59375 111.289062 235.386719 109.695312 237.472656 109.820312 L 261.242188 111.289062 C 263.328125 111.410156 264.921875 113.203125 264.796875 115.292969 C 264.789062 115.425781 264.773438 115.558594 264.753906 115.691406 L 260.78125 139.171875 C 260.4375 141.234375 258.484375 142.625 256.421875 142.28125 C 254.359375 141.9375 252.964844 139.988281 253.308594 137.925781 L 255.726562 123.648438 L 205.265625 159.214844 C 203.988281 160.113281 202.234375 160.160156 200.894531 159.203125 L 174.449219 140.429688 L 138.613281 168.945312 C 136.972656 170.246094 134.59375 169.972656 133.289062 168.335938 C 131.988281 166.699219 132.261719 164.316406 133.898438 163.015625 L 171.960938 132.730469 C 173.359375 131.621094 175.300781 131.65625 176.648438 132.710938 L 203.089844 151.480469 L 250.304688 118.199219 Z M 157.578125 93.75 C 122.328125 93.75 93.75 122.328125 93.75 157.578125 C 93.75 192.828125 122.328125 221.40625 157.578125 221.40625 C 171.988281 221.40625 185.28125 216.628906 195.964844 208.578125 L 211.265625 223.878906 C 209.457031 227.007812 209.886719 231.101562 212.558594 233.773438 L 256.851562 278.066406 C 260.035156 281.25 265.242188 281.25 268.425781 278.066406 L 278.066406 268.425781 C 281.25 265.242188 281.25 260.035156 278.066406 256.851562 L 233.773438 212.558594 C 231.101562 209.886719 227.007812 209.457031 223.878906 211.265625 L 208.578125 195.964844 C 216.628906 185.28125 221.40625 171.988281 221.40625 157.578125 C 221.40625 157.429688 221.402344 157.28125 221.402344 157.128906 C 214.832031 161.761719 208.261719 166.394531 201.691406 171.023438 C 195.9375 189.929688 178.363281 203.6875 157.578125 203.6875 C 132.113281 203.6875 111.472656 183.042969 111.472656 157.578125 C 111.472656 132.113281 132.113281 111.472656 157.578125 111.472656 C 176.890625 111.472656 193.425781 123.34375 200.289062 140.1875 L 203.105469 142.1875 L 216.417969 132.804688 C 206.746094 109.855469 184.042969 93.75 157.578125 93.75 Z M 157.578125 93.75 " fill-opacity="1" fill-rule="evenodd"/></g></svg>