<svg xmlns="http://www.w3.org/2000/svg" xmlns:xlink="http://www.w3.org/1999/xlink" width="500" zoomAndPan="magnify" viewBox="0 0 375 374.999991" height="500" preserveAspectRatio="xMidYMid meet" version="1.0"><defs><filter x="0%" y="0%" width="100%" height="100%" id="37f438849e"><feColorMatrix values="0 0 0 0 1 0 0 0 0 1 0 0 0 0 1 0 0 0 1 0" color-interpolation-filters="sRGB"/></filter><mask id="ec0fbdd82f"><g filter="url(#37f438849e)"><rect x="-37.5" width="450" fill="#000000" y="-37.499999" height="449.999989" fill-opacity="0.7"/></g></mask><clipPath id="e963eceeba"><path d="M 0.5 0.25 L 176.75 0.25 L 176.75 176.5 L 0.5 176.5 Z M 0.5 0.25 " clip-rule="nonzero"/></clipPath><clipPath id="629ce6bce1"><rect x="0" width="177" y="0" height="177"/></clipPath><mask id="3c88e3a68f"><g filter="url(#37f438849e)"><rect x="-37.5" width="450" fill="#000000" y="-37.499999" height="449.999989" fill-opacity="0.7"/></g></mask><clipPath id="10eea92876"><path d="M 0.25 0.5 L 176.5 0.5 L 176.5 176.75 L 0.25 176.75 Z M 0.25 0.5 " clip-rule="nonzero"/></clipPath><clipPath id="47daf5e895"><rect x="0" width="177" y="0" height="177"/></clipPath><clipPath id="1d0c0b92ea"><path d="M 37.5 37.5 L 213.75 37.5 L 213.75 213.75 L 37.5 213.75 Z M 37.5 37.5 " clip-rule="nonzero"/></clipPath><mask id="16d4731f61"><g filter="url(#37f438849e)"><rect x="-37.5" width="450" fill="#000000" y="-37.499999" height="449.999989" fill-opacity="0.5"/></g></mask><clipPath id="c9f5b7a4e3"><path d="M 0.25 0.25 L 176.5 0.25 L 176.5 176.5 L 0.25 176.5 Z M 0.25 0.25 " clip-rule="nonzero"/></clipPath><clipPath id="199f4b5573"><rect x="0" width="177" y="0" height="177"/></clipPath></defs><g mask="url(#ec0fbdd82f)"><g transform="matrix(1, 0, 0, 1, 37, 161)"><g clip-path="url(#629ce6bce1)"><g clip-path="url(#e963eceeba)"><path fill="#2563eb" d="M 88.625 0.25 C 40.003906 0.25 0.5 39.753906 0.5 88.375 C 0.5 136.996094 40.003906 176.5 88.625 176.5 C 137.246094 176.5 176.75 136.996094 176.75 88.375 C 176.75 39.753906 137.246094 0.25 88.625 0.25 Z M 88.625 4.082031 C 135.226562 4.082031 172.917969 41.773438 172.917969 88.375 C 172.917969 134.976562 135.226562 172.667969 88.625 172.667969 C 42.023438 172.667969 4.332031 134.976562 4.332031 88.375 C 4.332031 41.773438 42.023438 4.082031 88.625 4.082031 Z M 88.625 4.082031 " fill-opacity="1" fill-rule="nonzero"/></g></g></g></g><g mask="url(#3c88e3a68f)"><g transform="matrix(1, 0, 0, 1, 161, 37)"><g clip-path="url(#47daf5e895)"><g clip-path="url(#10eea92876)"><path fill="#2563eb" d="M 88.375 0.5 C 39.753906 0.5 0.25 40.003906 0.25 88.625 C 0.25 137.246094 39.753906 176.75 88.375 176.75 C 136.996094 176.75 176.5 137.246094 176.5 88.625 C 176.5 40.003906 136.996094 0.5 88.375 0.5 Z M 88.375 4.332031 C 134.976562 4.332031 172.667969 42.023438 172.667969 88.625 C 172.667969 135.226562 134.976562 172.917969 88.375 172.917969 C 41.773438 172.917969 4.082031 135.226562 4.082031 88.625 C 4.082031 42.023438 41.773438 4.332031 88.375 4.332031 Z M 88.375 4.332031 " fill-opacity="1" fill-rule="nonzero"/></g></g></g></g><g clip-path="url(#1d0c0b92ea)"><path fill="#2563eb" d="M 125.625 37.5 C 77.003906 37.5 37.5 77.003906 37.5 125.625 C 37.5 174.246094 77.003906 213.75 125.625 213.75 C 174.246094 213.75 213.75 174.246094 213.75 125.625 C 213.75 77.003906 174.246094 37.5 125.625 37.5 Z M 125.625 41.332031 C 172.226562 41.332031 209.917969 79.023438 209.917969 125.625 C 209.917969 172.226562 172.226562 209.917969 125.625 209.917969 C 79.023438 209.917969 41.332031 172.226562 41.332031 125.625 C 41.332031 79.023438 79.023438 41.332031 125.625 41.332031 Z M 125.625 41.332031 " fill-opacity="1" fill-rule="nonzero"/></g><g mask="url(#16d4731f61)"><g transform="matrix(1, 0, 0, 1, 161, 161)"><g clip-path="url(#199f4b5573)"><g clip-path="url(#c9f5b7a4e3)"><path fill="#2563eb" d="M 88.375 0.25 C 39.753906 0.25 0.25 39.753906 0.25 88.375 C 0.25 136.996094 39.753906 176.5 88.375 176.5 C 136.996094 176.5 176.5 136.996094 176.5 88.375 C 176.5 39.753906 136.996094 0.25 88.375 0.25 Z M 88.375 4.082031 C 134.976562 4.082031 172.667969 41.773438 172.667969 88.375 C 172.667969 134.976562 134.976562 172.667969 88.375 172.667969 C 41.773438 172.667969 4.082031 134.976562 4.082031 88.375 C 4.082031 41.773438 41.773438 4.082031 88.375 4.082031 Z M 88.375 4.082031 " fill-opacity="1" fill-rule="nonzero"/></g></g></g></g></svg>