<svg xmlns="http://www.w3.org/2000/svg" xmlns:xlink="http://www.w3.org/1999/xlink" width="500" zoomAndPan="magnify" viewBox="0 0 375 374.999991" height="500" preserveAspectRatio="xMidYMid meet" version="1.0"><defs><filter x="0%" y="0%" width="100%" height="100%" id="3f9e85df41"><feColorMatrix values="0 0 0 0 1 0 0 0 0 1 0 0 0 0 1 0 0 0 1 0" color-interpolation-filters="sRGB"/></filter><mask id="28bde41843"><g filter="url(#3f9e85df41)"><rect x="-37.5" width="450" fill="#000000" y="-37.499999" height="449.999989" fill-opacity="0.5"/></g></mask><clipPath id="75b35ec93f"><path d="M 0.375 0.375 L 296.625 0.375 L 296.625 296.625 L 0.375 296.625 Z M 0.375 0.375 " clip-rule="nonzero"/></clipPath><clipPath id="1e27dd9ec8"><rect x="0" width="297" y="0" height="297"/></clipPath><mask id="43cddafdfa"><g filter="url(#3f9e85df41)"><rect x="-37.5" width="450" fill="#000000" y="-37.499999" height="449.999989" fill-opacity="0.7"/></g></mask><clipPath id="05d3f95801"><path d="M 0.5 0.925781 L 210.5 0.925781 L 210.5 210.925781 L 0.5 210.925781 Z M 0.5 0.925781 " clip-rule="nonzero"/></clipPath><clipPath id="9d67bc25da"><rect x="0" width="211" y="0" height="211"/></clipPath><clipPath id="3f4c53b714"><path d="M 127.5 173.574219 L 247.5 173.574219 L 247.5 293.574219 L 127.5 293.574219 Z M 127.5 173.574219 " clip-rule="nonzero"/></clipPath></defs><g mask="url(#28bde41843)"><g transform="matrix(1, 0, 0, 1, 39, 39)"><g clip-path="url(#1e27dd9ec8)"><g clip-path="url(#75b35ec93f)"><path fill="#2563eb" d="M 148.5 0.375 C 66.773438 0.375 0.375 66.773438 0.375 148.5 C 0.375 230.226562 66.773438 296.625 148.5 296.625 C 230.226562 296.625 296.625 230.226562 296.625 148.5 C 296.625 66.773438 230.226562 0.375 148.5 0.375 Z M 148.5 6.816406 C 226.832031 6.816406 290.183594 70.167969 290.183594 148.5 C 290.183594 226.832031 226.832031 290.183594 148.5 290.183594 C 70.167969 290.183594 6.816406 226.832031 6.816406 148.5 C 6.816406 70.167969 70.167969 6.816406 148.5 6.816406 Z M 148.5 6.816406 " fill-opacity="1" fill-rule="nonzero"/></g></g></g></g><g mask="url(#43cddafdfa)"><g transform="matrix(1, 0, 0, 1, 82, 101)"><g clip-path="url(#9d67bc25da)"><g clip-path="url(#05d3f95801)"><path fill="#2563eb" d="M 105.5 0.925781 C 47.566406 0.925781 0.5 47.992188 0.5 105.925781 C 0.5 163.859375 47.566406 210.925781 105.5 210.925781 C 163.433594 210.925781 210.5 163.859375 210.5 105.925781 C 210.5 47.992188 163.433594 0.925781 105.5 0.925781 Z M 105.5 5.492188 C 161.027344 5.492188 205.933594 50.398438 205.933594 105.925781 C 205.933594 161.453125 161.027344 206.359375 105.5 206.359375 C 49.972656 206.359375 5.066406 161.453125 5.066406 105.925781 C 5.066406 50.398438 49.972656 5.492188 105.5 5.492188 Z M 105.5 5.492188 " fill-opacity="1" fill-rule="nonzero"/></g></g></g></g><g clip-path="url(#3f4c53b714)"><path fill="#2563eb" d="M 187.5 173.574219 C 154.394531 173.574219 127.5 200.46875 127.5 233.574219 C 127.5 266.675781 154.394531 293.574219 187.5 293.574219 C 220.605469 293.574219 247.5 266.675781 247.5 233.574219 C 247.5 200.46875 220.605469 173.574219 187.5 173.574219 Z M 187.5 176.179688 C 219.230469 176.179688 244.890625 201.84375 244.890625 233.574219 C 244.890625 265.300781 219.230469 290.964844 187.5 290.964844 C 155.769531 290.964844 130.109375 265.300781 130.109375 233.574219 C 130.109375 201.84375 155.769531 176.179688 187.5 176.179688 Z M 187.5 176.179688 " fill-opacity="1" fill-rule="nonzero"/></g></svg>