<svg xmlns="http://www.w3.org/2000/svg" xmlns:xlink="http://www.w3.org/1999/xlink" width="500" zoomAndPan="magnify" viewBox="0 0 375 374.999991" height="500" preserveAspectRatio="xMidYMid meet" version="1.0"><defs><clipPath id="0d3edd289f"><path d="M 10.3125 172 L 48 172 L 48 185 L 10.3125 185 Z M 10.3125 172 " clip-rule="nonzero"/></clipPath></defs><path fill="#ffffff" d="M 230.105469 309.683594 L 229.890625 211.914062 L 209.824219 211.914062 L 210.253906 309.683594 Z M 230.105469 309.683594 " fill-opacity="1" fill-rule="nonzero"/><path fill="#ffffff" d="M 140.601562 356.15625 C 140.707031 366.566406 149.1875 374.9375 159.488281 374.9375 L 212.183594 374.9375 C 222.59375 374.9375 231.074219 366.566406 231.285156 356.15625 L 231.285156 321.277344 L 140.921875 321.277344 Z M 140.601562 356.15625 " fill-opacity="1" fill-rule="nonzero"/><path fill="#ffffff" d="M 172.691406 309.683594 L 198.660156 309.683594 L 198.230469 211.914062 L 172.691406 211.914062 Z M 172.691406 309.683594 " fill-opacity="1" fill-rule="nonzero"/><path fill="#ffffff" d="M 147.46875 200.539062 L 224.203125 200.539062 L 185.78125 149.882812 Z M 147.46875 200.539062 " fill-opacity="1" fill-rule="nonzero"/><path fill="#ffffff" d="M 267.882812 110.28125 C 245.988281 89.675781 216.371094 78.085938 185.675781 78.085938 C 183.207031 78.085938 180.953125 78.191406 178.484375 78.300781 C 148.972656 80.019531 121.390625 92.574219 100.785156 113.609375 C 80.179688 134.644531 68.910156 161.796875 68.910156 190.023438 C 68.800781 231.449219 92.628906 269.441406 130.082031 288.648438 L 130.296875 206.121094 C 130.296875 204.832031 130.835938 203.652344 131.476562 202.6875 L 181.273438 136.898438 C 182.347656 135.394531 183.957031 134.535156 185.890625 134.535156 C 187.605469 134.535156 189.324219 135.289062 190.503906 136.898438 L 240.300781 202.6875 C 240.945312 203.542969 241.484375 204.832031 241.484375 206.121094 L 241.695312 289.078125 C 279.152344 269.332031 302.871094 231.339844 302.871094 190.453125 C 302.871094 159.972656 290.421875 131.53125 267.882812 110.28125 Z M 267.882812 110.28125 " fill-opacity="1" fill-rule="nonzero"/><path fill="#ffffff" d="M 141.246094 309.683594 L 161.3125 309.683594 L 161.742188 211.914062 L 141.671875 211.914062 Z M 141.246094 309.683594 " fill-opacity="1" fill-rule="nonzero"/><path fill="#ffffff" d="M 192.757812 31.832031 L 192.757812 5.75 C 192.757812 2.640625 190.183594 0.0625 186.964844 0.0625 C 183.851562 0.0625 181.273438 2.640625 181.273438 5.75 L 181.273438 31.9375 C 181.273438 35.050781 183.851562 37.734375 186.964844 37.734375 C 190.183594 37.519531 192.757812 35.050781 192.757812 31.832031 Z M 192.757812 31.832031 " fill-opacity="1" fill-rule="nonzero"/><path fill="#ffffff" d="M 358.890625 172.742188 L 332.921875 172.742188 C 329.808594 172.742188 327.125 175.320312 327.125 178.429688 C 327.125 181.542969 329.699219 184.121094 332.921875 184.121094 L 358.890625 184.121094 C 362.003906 184.121094 364.6875 181.542969 364.6875 178.429688 C 364.472656 175.425781 362.113281 172.742188 358.890625 172.742188 Z M 358.890625 172.742188 " fill-opacity="1" fill-rule="nonzero"/><g clip-path="url(#0d3edd289f)"><path fill="#ffffff" d="M 42.078125 172.742188 L 16.109375 172.742188 C 12.996094 172.742188 10.3125 175.320312 10.3125 178.429688 C 10.3125 181.542969 12.886719 184.121094 16.109375 184.121094 L 42.078125 184.121094 C 45.191406 184.121094 47.769531 181.542969 47.769531 178.429688 C 47.769531 175.425781 45.300781 172.742188 42.078125 172.742188 Z M 42.078125 172.742188 " fill-opacity="1" fill-rule="nonzero"/></g><path fill="#ffffff" d="M 84.472656 80.445312 C 86.832031 80.445312 88.871094 79.050781 89.730469 76.796875 C 90.480469 74.757812 90.265625 72.183594 88.441406 70.464844 L 70.304688 52.328125 C 68.160156 50.183594 64.511719 50.183594 62.363281 52.328125 C 60.21875 54.476562 60.21875 58.125 62.363281 60.269531 L 80.5 78.40625 C 81.679688 79.804688 82.96875 80.445312 84.472656 80.445312 Z M 84.472656 80.445312 " fill-opacity="1" fill-rule="nonzero"/><path fill="#ffffff" d="M 304.480469 52.4375 L 286.34375 70.574219 C 284.195312 72.71875 284.195312 76.367188 286.34375 78.515625 C 288.488281 80.660156 292.136719 80.660156 294.285156 78.515625 L 312.421875 60.378906 C 314.570312 58.230469 314.570312 54.582031 312.421875 52.4375 C 310.382812 50.289062 306.625 50.289062 304.480469 52.4375 Z M 304.480469 52.4375 " fill-opacity="1" fill-rule="nonzero"/></svg>