<svg xmlns="http://www.w3.org/2000/svg" xmlns:xlink="http://www.w3.org/1999/xlink" width="500" zoomAndPan="magnify" viewBox="0 0 375 374.999991" height="500" preserveAspectRatio="xMidYMid meet" version="1.0"><defs><clipPath id="1a3a56778d"><path d="M 0.195312 9 L 374.445312 9 L 374.445312 366.375 L 0.195312 366.375 Z M 0.195312 9 " clip-rule="nonzero"/></clipPath></defs><g clip-path="url(#1a3a56778d)"><path fill="#ffffff" d="M 291.890625 9.539062 C 249.570312 9.539062 215.269531 43.839844 215.269531 86.152344 L 215.269531 86.160156 C 215.269531 128.476562 249.570312 162.785156 291.882812 162.785156 C 291.890625 162.785156 291.890625 162.785156 291.890625 162.785156 C 334.214844 162.785156 368.515625 128.484375 368.515625 86.171875 C 368.515625 86.171875 368.515625 86.171875 368.515625 86.160156 C 368.515625 43.847656 334.203125 9.539062 291.890625 9.539062 Z M 291.558594 40.648438 C 291.578125 40.648438 291.59375 40.648438 291.609375 40.648438 L 291.628906 40.648438 C 291.730469 40.648438 291.824219 40.648438 291.925781 40.648438 C 294.488281 40.722656 296.769531 42.300781 297.765625 44.675781 L 307.226562 67.269531 L 332.664062 72.414062 C 335.328125 72.949219 337.390625 75.070312 337.832031 77.75 C 338.257812 80.289062 337.160156 82.839844 335.023438 84.273438 L 318.828125 95.210938 L 323.382812 118.992188 C 323.902344 121.664062 322.710938 124.378906 320.386719 125.808594 C 318.207031 127.148438 315.449219 127.09375 313.320312 125.671875 L 291.882812 111.386719 L 270.445312 125.671875 C 268.316406 127.09375 265.558594 127.148438 263.378906 125.808594 C 261.0625 124.378906 259.871094 121.664062 260.382812 118.992188 L 264.921875 95.210938 L 248.746094 84.273438 C 246.605469 82.839844 245.507812 80.289062 245.933594 77.75 C 246.386719 75.070312 248.445312 72.949219 251.101562 72.414062 L 276.160156 67.355469 L 285.652344 44.675781 C 286.664062 42.289062 288.972656 40.707031 291.558594 40.648438 Z M 138.59375 80.160156 C 105.679688 80.160156 79 106.832031 79 139.746094 C 79 172.660156 105.671875 199.34375 138.585938 199.34375 C 171.5 199.34375 198.183594 172.667969 198.183594 139.753906 C 198.183594 139.753906 198.183594 139.753906 198.183594 139.746094 C 198.191406 106.839844 171.515625 80.160156 138.59375 80.160156 C 138.601562 80.160156 138.59375 80.160156 138.59375 80.160156 Z M 138.375 104.371094 C 138.449219 104.371094 138.527344 104.371094 138.601562 104.371094 C 140.59375 104.433594 142.375 105.65625 143.140625 107.496094 L 150.503906 125.0625 L 170.289062 129.070312 C 172.359375 129.488281 173.953125 131.148438 174.300781 133.226562 C 174.625 135.191406 173.773438 137.167969 172.121094 138.28125 L 159.53125 146.796875 L 163.070312 165.304688 C 163.464844 167.382812 162.535156 169.484375 160.746094 170.59375 C 159.054688 171.640625 156.898438 171.597656 155.246094 170.488281 L 138.585938 159.378906 L 121.90625 170.488281 C 120.257812 171.589844 118.109375 171.628906 116.417969 170.59375 C 114.613281 169.484375 113.683594 167.382812 114.074219 165.304688 L 117.617188 146.796875 L 105.023438 138.28125 C 103.375 137.167969 102.523438 135.191406 102.84375 133.226562 C 103.195312 131.140625 104.785156 129.488281 106.855469 129.070312 L 126.359375 125.128906 L 133.742188 107.503906 C 134.535156 105.625 136.355469 104.398438 138.375 104.371094 Z M 279.769531 209.492188 C 277.460938 209.457031 274.796875 209.558594 271.738281 209.855469 C 258.246094 211.160156 237.574219 217.066406 218.144531 224.210938 C 205.195312 228.96875 192.742188 234.367188 180.355469 239.925781 C 192.324219 245.316406 204.824219 249.710938 216.1875 254.296875 C 219.578125 252.6875 222.792969 251.226562 226.183594 249.605469 L 226.167969 249.589844 C 245.074219 240.15625 264.835938 230.273438 276.304688 224.664062 C 284.152344 220.8125 289.269531 218.269531 292.496094 216.566406 C 293.261719 216.183594 293.984375 215.816406 294.472656 215.519531 C 295.085938 215.152344 295.289062 214.34375 294.921875 213.722656 L 294.921875 213.703125 C 294.71875 213.371094 293.996094 212.667969 293.441406 212.394531 C 290.625 210.957031 286.714844 209.59375 279.769531 209.492188 Z M 97.984375 215.714844 C 94.613281 215.578125 91.242188 215.765625 87.84375 216.292969 C 74.257812 218.421875 58.964844 226.695312 48.714844 232.570312 C 38.457031 238.453125 33.160156 241.730469 24.742188 245.519531 L 24.742188 245.539062 C 19.402344 247.929688 12.746094 250.492188 5.832031 253.074219 C 5.355469 253.25 4.878906 253.507812 4.4375 253.769531 C 1.609375 255.464844 0.589844 258.0625 0.460938 261.933594 C 0.195312 265.375 0.078125 268.875 0.347656 272.3125 C 1.191406 283.289062 4.34375 294.082031 8.964844 304.273438 C 12.789062 312.703125 17.820312 320.984375 23.148438 328.699219 C 25.78125 332.25 29.890625 333.757812 33.722656 331.992188 C 37.214844 330.351562 40.78125 328.632812 44 327.160156 C 49.5 324.613281 56.148438 321.820312 65.214844 323.464844 C 74.230469 325.089844 84.660156 330.238281 102.292969 338.394531 C 119.933594 346.5625 144.84375 357.953125 157.828125 363.027344 C 164.324219 365.570312 167.242188 366.355469 170.460938 366.320312 C 173.636719 366.285156 177.96875 365.222656 186.109375 363.359375 C 202.386719 359.628906 232.882812 353.167969 249.367188 349.125 C 257.617188 347.097656 261.703125 345.914062 266.476562 342.96875 C 271.246094 340.039062 277 335.035156 287.34375 325.558594 C 308.050781 306.589844 346.789062 270.082031 363.703125 250.28125 C 367.925781 245.34375 370.753906 241.382812 372.535156 238.421875 C 373.589844 236.65625 374.277344 235.066406 374.660156 234.078125 C 374.890625 233.464844 374.832031 232.800781 374.492188 232.230469 C 374.261719 231.847656 373.53125 231.285156 373.113281 231.097656 C 370.863281 230.1875 368.539062 229.753906 364.84375 230.152344 C 361.039062 230.554688 355.898438 232.035156 348.652344 235.441406 C 340.523438 239.261719 329.617188 245.851562 317.808594 253.300781 C 302.507812 262.949219 283.003906 274.960938 261.890625 288.019531 C 262.972656 290.53125 263.789062 293.078125 263.914062 295.699219 C 264.101562 299.566406 262.714844 304.597656 258.261719 307.527344 C 253.953125 310.351562 248.0625 311.296875 239.210938 311.101562 C 222.359375 310.71875 193.847656 305.679688 164.765625 300.527344 C 162.816406 300.078125 161.417969 299.429688 160.527344 297.929688 C 159.019531 295.402344 159.828125 292.140625 162.355469 290.632812 C 163.488281 289.953125 164.832031 289.730469 166.128906 289.988281 C 195.398438 295.15625 224.421875 300.09375 239.421875 300.433594 C 247.273438 300.613281 251.359375 299.308594 252.386719 298.636719 C 253.078125 298.1875 253.128906 298.058594 253.1875 297.921875 C 253.25 297.785156 253.289062 297.265625 253.238281 296.261719 C 253.0625 292.804688 250.746094 287.707031 244.480469 282.199219 C 238.230469 276.6875 228.039062 270.804688 215.117188 265.398438 C 202.175781 259.992188 186.050781 254.835938 170.734375 247.375 C 155.417969 239.917969 141.703125 230.546875 128.199219 224.132812 C 118.066406 219.308594 108.082031 216.113281 97.984375 215.714844 Z M 333.609375 220.003906 C 327.4375 220.183594 316.71875 222.152344 301.050781 227.972656 C 282.722656 234.785156 256.902344 246.832031 230.515625 259.355469 L 230.550781 259.355469 C 229.972656 259.636719 229.503906 259.867188 229.019531 260.085938 C 238.050781 264.507812 245.832031 269.164062 251.503906 274.167969 C 253.316406 275.769531 254.796875 277.394531 256.195312 279.023438 C 284.730469 261.382812 312.84375 243.960938 327.410156 234.519531 C 334.773438 229.734375 338.632812 226.917969 340.351562 225.410156 C 341.738281 224.160156 341.925781 223.15625 341.21875 221.972656 L 341.21875 221.953125 C 340.667969 221.324219 340.675781 221.359375 339.789062 220.769531 C 339.421875 220.617188 338.945312 220.5 338.292969 220.335938 C 337.21875 220.074219 335.667969 219.9375 333.609375 220.003906 Z M 333.609375 220.003906 " fill-opacity="1" fill-rule="nonzero"/></g></svg>