<svg xmlns="http://www.w3.org/2000/svg" xmlns:xlink="http://www.w3.org/1999/xlink" width="500" zoomAndPan="magnify" viewBox="0 0 375 374.999991" height="500" preserveAspectRatio="xMidYMid meet" version="1.0"><defs><clipPath id="9d6c3c93f3"><path d="M 18.28125 0 L 347 0 L 347 375 L 18.28125 375 Z M 18.28125 0 " clip-rule="nonzero"/></clipPath></defs><g clip-path="url(#9d6c3c93f3)"><path fill="#ffffff" d="M 167.757812 164.628906 C 170.140625 164.628906 172.296875 165.578125 173.867188 167.15625 C 175.425781 168.714844 176.398438 170.863281 176.398438 173.246094 C 176.398438 175.628906 175.425781 177.785156 173.867188 179.355469 C 172.296875 180.914062 170.140625 181.886719 167.757812 181.886719 C 165.375 181.886719 163.21875 180.914062 161.667969 179.355469 C 160.097656 177.785156 159.136719 175.628906 159.136719 173.246094 C 159.136719 170.863281 160.089844 168.707031 161.667969 167.15625 C 163.21875 165.578125 165.375 164.628906 167.757812 164.628906 Z M 322.640625 261.597656 C 333.867188 271.277344 323.429688 279.746094 317.128906 281.574219 C 329.5625 286.648438 325.9375 298.050781 314.828125 301.835938 C 333.078125 344.6875 300.820312 346.222656 255.339844 336.984375 L 248.441406 365.453125 C 247.074219 371.066406 242.183594 374.917969 236.402344 374.917969 L 107.460938 374.917969 C 103.210938 374.917969 99.542969 372.953125 97.160156 369.410156 C 94.800781 365.863281 94.382812 361.742188 96.019531 357.808594 C 121.273438 296.664062 101.925781 272.605469 81.742188 244.382812 L 131.472656 244.382812 C 140.089844 244.382812 147.113281 237.382812 147.113281 228.761719 L 147.113281 218.566406 C 147.113281 206.503906 138.78125 196.351562 127.597656 193.515625 C 126.75 183.902344 124.117188 175.03125 119.535156 166.125 L 112.925781 153.320312 L 112.925781 119.046875 C 118.503906 116.347656 122.378906 110.632812 122.378906 104.023438 L 122.378906 100.582031 C 129.132812 97.125 133.773438 90.078125 133.773438 81.96875 L 133.773438 61.933594 C 160.058594 53.625 189.539062 53.316406 217.03125 60.085938 L 217.03125 75.421875 C 217.03125 79.75 215.246094 83.6875 212.410156 86.546875 C 209.554688 89.382812 205.613281 91.164062 201.285156 91.164062 L 189.453125 91.164062 C 181.851562 91.164062 174.925781 94.273438 169.933594 99.285156 C 164.921875 104.28125 161.8125 111.179688 161.8125 118.78125 L 161.8125 153.589844 C 158.539062 154.585938 155.613281 156.367188 153.253906 158.730469 C 149.546875 162.433594 147.246094 167.574219 147.246094 173.230469 C 147.246094 178.910156 149.546875 184.027344 153.253906 187.734375 C 156.960938 191.441406 162.097656 193.742188 167.757812 193.742188 C 173.414062 193.742188 178.554688 191.441406 182.257812 187.734375 C 185.964844 184.027344 188.265625 178.902344 188.265625 173.230469 C 188.265625 167.574219 185.964844 162.433594 182.257812 158.730469 C 179.898438 156.367188 176.972656 154.585938 173.699219 153.589844 L 173.699219 118.78125 C 173.699219 114.46875 175.460938 110.535156 178.320312 107.679688 C 181.175781 104.820312 185.117188 103.035156 189.445312 103.035156 L 201.277344 103.035156 C 208.878906 103.035156 215.78125 99.929688 220.796875 94.9375 C 225.789062 89.921875 228.894531 83.023438 228.894531 75.421875 L 228.894531 63.492188 C 274.164062 78.386719 311.582031 113.160156 316.128906 163.488281 C 318.09375 185.101562 310.015625 196 341.347656 236.195312 C 356.746094 261.121094 333.519531 261.292969 322.640625 261.597656 Z M 234.433594 148.613281 L 243.175781 139.871094 C 245.480469 137.554688 245.480469 133.796875 243.175781 131.480469 C 240.859375 129.160156 237.089844 129.160156 234.765625 131.480469 L 226.042969 140.199219 L 217.324219 131.480469 C 215.007812 129.160156 211.234375 129.160156 208.910156 131.480469 C 206.585938 133.796875 206.59375 137.554688 208.910156 139.871094 L 217.652344 148.613281 L 208.910156 157.332031 C 206.59375 159.648438 206.59375 163.40625 208.910156 165.722656 C 211.226562 168.042969 215 168.042969 217.324219 165.722656 L 226.042969 157.003906 L 234.765625 165.722656 C 237.082031 168.042969 240.851562 168.042969 243.175781 165.722656 C 245.480469 163.40625 245.480469 159.648438 243.175781 157.332031 Z M 115.582031 192.726562 C 114.710938 185.371094 112.574219 178.554688 108.972656 171.570312 L 101.035156 156.199219 L 101.035156 120.703125 L 52.46875 120.703125 L 52.46875 156.199219 L 44.550781 171.566406 C 40.949219 178.546875 38.792969 185.367188 37.921875 192.71875 L 115.582031 192.71875 Z M 135.222656 228.753906 L 135.222656 218.558594 C 135.222656 210.890625 128.941406 204.613281 121.273438 204.613281 L 32.222656 204.613281 C 24.554688 204.613281 18.296875 210.890625 18.296875 218.558594 L 18.296875 228.753906 C 18.296875 230.808594 19.976562 232.503906 22.023438 232.503906 L 131.472656 232.503906 C 133.546875 232.503906 135.222656 230.808594 135.222656 228.753906 Z M 105.699219 108.804688 C 108.328125 108.804688 110.484375 106.648438 110.484375 104.015625 L 110.484375 102.855469 L 43.015625 102.855469 L 43.015625 104.015625 C 43.015625 106.648438 45.195312 108.804688 47.828125 108.804688 Z M 43.015625 90.96875 L 112.882812 90.96875 C 117.832031 90.96875 121.875 86.925781 121.875 81.976562 L 121.875 54.683594 C 121.875 51.386719 119.175781 48.695312 115.886719 48.695312 L 105.835938 48.695312 C 102.539062 48.695312 99.851562 51.394531 99.851562 54.683594 L 99.851562 66.078125 C 99.851562 68.066406 98.234375 69.683594 96.246094 69.683594 L 92.578125 69.683594 C 90.589844 69.683594 88.972656 68.066406 88.972656 66.078125 L 88.972656 54.683594 C 88.972656 51.386719 86.277344 48.695312 82.988281 48.695312 L 72.9375 48.695312 C 69.640625 48.695312 66.949219 51.394531 66.949219 54.683594 L 66.949219 66.078125 C 66.949219 68.066406 65.3125 69.683594 63.34375 69.683594 L 59.675781 69.683594 C 57.6875 69.683594 56.070312 68.066406 56.070312 66.078125 L 56.070312 54.683594 C 56.070312 51.386719 53.382812 48.695312 50.0625 48.695312 L 40.035156 48.695312 C 36.714844 48.695312 34.027344 51.394531 34.027344 54.683594 L 34.027344 81.96875 C 34.027344 86.925781 38.089844 90.96875 43.015625 90.96875 Z M 228.902344 20.933594 L 242.929688 34.960938 C 245.246094 37.277344 249.019531 37.277344 251.34375 34.960938 C 253.667969 32.644531 253.660156 28.886719 251.34375 26.570312 L 227.164062 2.40625 C 224.84375 0.0859375 221.089844 0.0859375 218.769531 2.40625 L 194.613281 26.5625 C 192.296875 28.878906 192.296875 32.636719 194.613281 34.953125 C 196.929688 37.273438 200.6875 37.273438 203.003906 34.953125 L 217.03125 20.925781 L 217.03125 60.085938 C 221.035156 61.070312 225 62.203125 228.902344 63.492188 Z M 228.902344 20.933594 " fill-opacity="1" fill-rule="nonzero"/></g></svg>