<svg xmlns="http://www.w3.org/2000/svg" xmlns:xlink="http://www.w3.org/1999/xlink" width="500" zoomAndPan="magnify" viewBox="0 0 375 374.999991" height="500" preserveAspectRatio="xMidYMid meet" version="1.0"><path fill="#ffffff" d="M 191.695312 246.371094 L 211.371094 286.011719 C 212.035156 285.25 212.9375 284.78125 213.882812 284.636719 L 219.4375 283.835938 L 219.4375 254.90625 C 219.4375 249.394531 227.816406 249.394531 227.816406 254.90625 L 227.816406 282.605469 L 251.53125 279.085938 C 251.867188 278.425781 252.21875 277.78125 252.550781 277.117188 L 252.550781 235.351562 C 252.550781 222.984375 242.421875 212.855469 230.054688 212.855469 L 213.464844 212.855469 C 206.222656 217.910156 197.449219 220.875 187.953125 220.875 C 178.457031 220.875 169.671875 217.910156 162.464844 212.855469 L 145.851562 212.855469 C 133.484375 212.855469 123.351562 222.984375 123.351562 235.351562 L 123.351562 277.101562 L 124.015625 278.382812 L 148.078125 281.941406 L 148.078125 254.886719 C 148.078125 249.378906 156.460938 249.378906 156.460938 254.886719 L 156.460938 283.179688 L 165.3125 284.488281 L 184.199219 246.371094 C 185.734375 243.257812 190.171875 243.308594 191.695312 246.371094 Z M 223.09375 290.894531 L 253.449219 295.355469 C 257.007812 295.875 258.21875 300.222656 255.582031 302.640625 L 242.269531 315.695312 L 247.277344 320.585938 C 248.296875 321.515625 248.84375 322.9375 248.609375 324.386719 L 241.675781 365.355469 L 278.417969 346.132812 C 279.605469 345.488281 281.054688 345.445312 282.335938 346.105469 L 319.128906 365.355469 L 312.195312 324.386719 C 311.976562 323.078125 312.386719 321.707031 313.382812 320.726562 L 343.050781 291.671875 L 301.988281 285.617188 C 300.679688 285.398438 299.476562 284.597656 298.855469 283.316406 L 280.394531 246.144531 L 262.046875 283.148438 C 261.476562 284.429688 260.289062 285.398438 258.816406 285.617188 Z M 130.101562 317.8125 L 114.433594 302.480469 C 111.964844 300.0625 113.363281 295.859375 116.761719 295.382812 L 116.761719 295.355469 L 149.277344 290.558594 L 115.714844 285.617188 C 114.410156 285.398438 113.21875 284.597656 112.585938 283.316406 L 94.144531 246.144531 L 75.773438 283.148438 C 75.230469 284.429688 74.042969 285.398438 72.550781 285.617188 L 31.488281 291.671875 L 61.011719 320.585938 C 62.058594 321.515625 62.605469 322.9375 62.34375 324.386719 L 55.410156 365.355469 L 92.179688 346.105469 C 93.34375 345.488281 94.816406 345.445312 96.070312 346.105469 L 132.863281 365.355469 L 125.929688 324.386719 C 125.714844 323.082031 126.125 321.707031 127.121094 320.726562 Z M 206.070312 294.175781 L 187.933594 257.625 L 169.898438 293.992188 C 169.328125 295.273438 168.140625 296.242188 166.667969 296.460938 L 126.292969 302.414062 L 155.320312 330.851562 C 156.34375 331.78125 156.886719 333.179688 156.652344 334.652344 L 149.835938 374.910156 L 185.960938 356.019531 C 187.148438 355.375 188.597656 355.332031 189.851562 355.996094 L 226.027344 374.910156 L 219.210938 334.652344 C 219 333.34375 219.402344 331.972656 220.398438 330.976562 L 249.570312 302.421875 L 209.21875 296.46875 C 207.90625 296.261719 206.714844 295.457031 206.070312 294.175781 Z M 187.945312 131.726562 C 212.5625 131.726562 232.515625 151.6875 232.515625 176.296875 C 232.515625 186.980469 228.738281 196.800781 222.476562 204.472656 L 230.042969 204.472656 C 247.042969 204.472656 260.925781 218.355469 260.925781 235.351562 L 260.925781 261.863281 C 276.640625 234.28125 295.480469 206.207031 295.480469 178.121094 C 295.480469 118.714844 247.34375 70.574219 187.933594 70.574219 C 128.550781 70.574219 80.390625 118.714844 80.390625 178.121094 C 80.390625 206.222656 99.238281 234.257812 114.945312 261.863281 L 114.945312 235.351562 C 114.945312 218.355469 128.828125 204.472656 145.828125 204.472656 L 153.394531 204.472656 C 138.945312 186.761719 140.25 160.964844 156.410156 144.78125 C 164.488281 136.714844 175.652344 131.726562 187.945312 131.726562 Z M 213.53125 150.714844 C 199.40625 136.574219 176.480469 136.574219 162.363281 150.714844 C 146.773438 166.308594 148.621094 192.0625 166.324219 205.335938 C 180.734375 216.136719 200.90625 214.546875 213.53125 201.894531 C 227.675781 187.769531 227.675781 164.84375 213.53125 150.714844 Z M 333.980469 183.421875 C 328.472656 183.421875 328.472656 175.039062 333.980469 175.039062 L 361.0625 175.039062 C 366.570312 175.039062 366.570312 183.421875 361.0625 183.421875 Z M 41.042969 175.039062 C 46.550781 175.039062 46.550781 183.421875 41.042969 183.421875 L 13.988281 183.421875 C 8.460938 183.421875 8.460938 175.039062 13.988281 175.039062 Z M 62.761719 102.394531 C 67.511719 105.148438 63.332031 112.367188 58.585938 109.613281 L 35.132812 96.082031 C 30.382812 93.324219 34.5625 86.089844 39.308594 88.835938 Z M 117.902344 50.296875 C 120.65625 55.042969 113.414062 59.246094 110.660156 54.472656 L 97.136719 31.046875 C 94.378906 26.273438 101.625 22.09375 104.378906 26.84375 Z M 316.464844 109.601562 C 311.691406 112.359375 307.515625 105.117188 312.261719 102.386719 L 335.714844 88.828125 C 340.488281 86.074219 344.667969 93.316406 339.894531 96.070312 Z M 264.367188 54.464844 C 261.613281 59.238281 254.394531 55.035156 257.148438 50.289062 L 270.679688 26.832031 C 273.433594 22.085938 280.652344 26.265625 277.898438 31.035156 Z M 191.71875 32.753906 C 191.71875 38.261719 183.339844 38.261719 183.339844 32.753906 L 183.339844 5.691406 C 183.339844 0.179688 191.71875 0.179688 191.71875 5.691406 Z M 191.71875 32.753906 " fill-opacity="1" fill-rule="nonzero"/></svg>