<svg xmlns="http://www.w3.org/2000/svg" xmlns:xlink="http://www.w3.org/1999/xlink" width="500" zoomAndPan="magnify" viewBox="0 0 375 374.999991" height="500" preserveAspectRatio="xMidYMid meet" version="1.0"><defs><filter x="0%" y="0%" width="100%" height="100%" id="d5eb773e2a"><feColorMatrix values="0 0 0 0 1 0 0 0 0 1 0 0 0 0 1 0 0 0 1 0" color-interpolation-filters="sRGB"/></filter><mask id="bd977ad510"><g filter="url(#d5eb773e2a)"><rect x="-37.5" width="450" fill="#000000" y="-37.499999" height="449.999989" fill-opacity="0.7"/></g></mask><clipPath id="90c0813fd8"><path d="M 0.375 0.375 L 296.625 0.375 L 296.625 296.625 L 0.375 296.625 Z M 0.375 0.375 " clip-rule="nonzero"/></clipPath><clipPath id="5705f226cf"><rect x="0" width="297" y="0" height="297"/></clipPath><mask id="017bd0d499"><g filter="url(#d5eb773e2a)"><rect x="-37.5" width="450" fill="#000000" y="-37.499999" height="449.999989" fill-opacity="0.8"/></g></mask><clipPath id="89b514cc3c"><path d="M 28.25 28.675781 L 236.75 28.675781 L 236.75 237.175781 L 28.25 237.175781 Z M 28.25 28.675781 " clip-rule="nonzero"/></clipPath><clipPath id="1935c6348e"><path d="M 27.5 102.925781 L 27.5 162.925781 C 27.5 204.347656 61.078125 237.925781 102.5 237.925781 L 162.5 237.925781 C 203.921875 237.925781 237.5 204.347656 237.5 162.925781 L 237.5 102.925781 C 237.5 61.503906 203.921875 27.925781 162.5 27.925781 L 102.5 27.925781 C 61.078125 27.925781 27.5 61.503906 27.5 102.925781 Z M 27.5 102.925781 " clip-rule="nonzero"/></clipPath><clipPath id="f1a9bfae08"><path d="M 103.398438 28.824219 L 161.601562 28.824219 C 203.019531 28.824219 236.601562 62.402344 236.601562 103.824219 L 236.601562 162.023438 C 236.601562 203.445312 203.019531 237.023438 161.601562 237.023438 L 103.398438 237.023438 C 61.980469 237.023438 28.398438 203.445312 28.398438 162.023438 L 28.398438 103.824219 C 28.398438 62.402344 61.980469 28.824219 103.398438 28.824219 Z M 103.398438 28.824219 " clip-rule="nonzero"/></clipPath><clipPath id="eeba67dcba"><path d="M 27.5 27.925781 L 237.5 27.925781 L 237.5 237.925781 L 27.5 237.925781 Z M 27.5 27.925781 " clip-rule="nonzero"/></clipPath><clipPath id="5a01a6cdf5"><path d="M 27.5 102.925781 L 27.5 162.925781 C 27.5 204.347656 61.078125 237.925781 102.5 237.925781 L 162.5 237.925781 C 203.921875 237.925781 237.5 204.347656 237.5 162.925781 L 237.5 102.925781 C 237.5 61.503906 203.921875 27.925781 162.5 27.925781 L 102.5 27.925781 C 61.078125 27.925781 27.5 61.503906 27.5 102.925781 Z M 27.5 102.925781 " clip-rule="nonzero"/></clipPath><clipPath id="8add5f8d32"><path d="M 27.5 102.925781 L 27.5 162.925781 C 27.5 204.347656 61.078125 237.925781 102.5 237.925781 L 162.5 237.925781 C 203.921875 237.925781 237.5 204.347656 237.5 162.925781 L 237.5 102.925781 C 237.5 61.503906 203.921875 27.925781 162.5 27.925781 L 102.5 27.925781 C 61.078125 27.925781 27.5 61.503906 27.5 102.925781 Z M 27.5 102.925781 " clip-rule="nonzero"/></clipPath><clipPath id="0ed4efab4d"><rect x="0" width="265" y="0" height="266"/></clipPath><clipPath id="e19bee21ed"><path d="M 128.25 174.324219 L 246.75 174.324219 L 246.75 292.824219 L 128.25 292.824219 Z M 128.25 174.324219 " clip-rule="nonzero"/></clipPath><clipPath id="12230c8340"><path d="M 127.5 233.574219 C 127.5 266.710938 154.363281 293.574219 187.5 293.574219 C 220.636719 293.574219 247.5 266.710938 247.5 233.574219 C 247.5 200.4375 220.636719 173.574219 187.5 173.574219 C 154.363281 173.574219 127.5 200.4375 127.5 233.574219 Z M 127.5 233.574219 " clip-rule="nonzero"/></clipPath><clipPath id="ea846ab9f9"><path d="M 187.5 174.472656 C 220.140625 174.472656 246.601562 200.933594 246.601562 233.574219 C 246.601562 266.214844 220.140625 292.671875 187.5 292.671875 C 154.859375 292.671875 128.398438 266.214844 128.398438 233.574219 C 128.398438 200.933594 154.859375 174.472656 187.5 174.472656 Z M 187.5 174.472656 " clip-rule="nonzero"/></clipPath><clipPath id="c80c4b8548"><path d="M 127.5 173.574219 L 247.5 173.574219 L 247.5 293.574219 L 127.5 293.574219 Z M 127.5 173.574219 " clip-rule="nonzero"/></clipPath><clipPath id="30a521cc51"><path d="M 127.5 233.574219 C 127.5 266.710938 154.363281 293.574219 187.5 293.574219 C 220.636719 293.574219 247.5 266.710938 247.5 233.574219 C 247.5 200.4375 220.636719 173.574219 187.5 173.574219 C 154.363281 173.574219 127.5 200.4375 127.5 233.574219 Z M 127.5 233.574219 " clip-rule="nonzero"/></clipPath><clipPath id="076d2ee7cc"><path d="M 127.5 233.574219 C 127.5 266.710938 154.363281 293.574219 187.5 293.574219 C 220.636719 293.574219 247.5 266.710938 247.5 233.574219 C 247.5 200.4375 220.636719 173.574219 187.5 173.574219 C 154.363281 173.574219 127.5 200.4375 127.5 233.574219 Z M 127.5 233.574219 " clip-rule="nonzero"/></clipPath></defs><g mask="url(#bd977ad510)"><g transform="matrix(1, 0, 0, 1, 39, 39)"><g clip-path="url(#5705f226cf)"><g clip-path="url(#90c0813fd8)"><path fill="#2563eb" d="M 148.5 0.375 C 66.773438 0.375 0.375 66.773438 0.375 148.5 C 0.375 230.226562 66.773438 296.625 148.5 296.625 C 230.226562 296.625 296.625 230.226562 296.625 148.5 C 296.625 66.773438 230.226562 0.375 148.5 0.375 Z M 148.5 6.816406 C 226.832031 6.816406 290.183594 70.167969 290.183594 148.5 C 290.183594 226.832031 226.832031 290.183594 148.5 290.183594 C 70.167969 290.183594 6.816406 226.832031 6.816406 148.5 C 6.816406 70.167969 70.167969 6.816406 148.5 6.816406 Z M 148.5 6.816406 " fill-opacity="1" fill-rule="nonzero"/></g></g></g></g><g mask="url(#017bd0d499)"><g transform="matrix(1, 0, 0, 1, 55, 74)"><g clip-path="url(#0ed4efab4d)"><g clip-path="url(#89b514cc3c)"><g clip-path="url(#1935c6348e)"><g clip-path="url(#f1a9bfae08)"><path fill="#ffffff" d="M 132.5 27.925781 C 74.566406 27.925781 27.5 74.992188 27.5 132.925781 C 27.5 190.859375 74.566406 237.925781 132.5 237.925781 C 190.433594 237.925781 237.5 190.859375 237.5 132.925781 C 237.5 74.992188 190.433594 27.925781 132.5 27.925781 Z M 132.5 32.492188 C 188.027344 32.492188 232.933594 77.398438 232.933594 132.925781 C 232.933594 188.453125 188.027344 233.359375 132.5 233.359375 C 76.972656 233.359375 32.066406 188.453125 32.066406 132.925781 C 32.066406 77.398438 76.972656 32.492188 132.5 32.492188 Z M 132.5 32.492188 " fill-opacity="1" fill-rule="nonzero"/></g></g></g><g clip-path="url(#eeba67dcba)"><g clip-path="url(#5a01a6cdf5)"><g clip-path="url(#8add5f8d32)"><path stroke-linecap="butt" transform="matrix(0.75, 0, 0, 0.75, 27.499999, 27.925198)" fill="none" stroke-linejoin="miter" d="M 0.00000122333 100.000784 L 0.00000122333 180.000789 C 0.00000122333 235.229959 44.770837 280.000796 100.000008 280.000796 L 180.000013 280.000796 C 235.229183 280.000796 280.00002 235.229959 280.00002 180.000789 L 280.00002 100.000784 C 280.00002 44.771614 235.229183 0.000777311 180.000013 0.000777311 L 100.000008 0.000777311 C 44.770837 0.000777311 0.00000122333 44.771614 0.00000122333 100.000784 Z M 0.00000122333 100.000784 " stroke="#2563eb" stroke-width="18" stroke-opacity="1" stroke-miterlimit="4"/></g></g></g></g></g></g><g clip-path="url(#e19bee21ed)"><g clip-path="url(#12230c8340)"><g clip-path="url(#ea846ab9f9)"><path fill="#2563eb" d="M 187.5 173.574219 C 154.394531 173.574219 127.5 200.46875 127.5 233.574219 C 127.5 266.675781 154.394531 293.574219 187.5 293.574219 C 220.605469 293.574219 247.5 266.675781 247.5 233.574219 C 247.5 200.46875 220.605469 173.574219 187.5 173.574219 Z M 187.5 176.179688 C 219.230469 176.179688 244.890625 201.84375 244.890625 233.574219 C 244.890625 265.300781 219.230469 290.964844 187.5 290.964844 C 155.769531 290.964844 130.109375 265.300781 130.109375 233.574219 C 130.109375 201.84375 155.769531 176.179688 187.5 176.179688 Z M 187.5 176.179688 " fill-opacity="1" fill-rule="nonzero"/></g></g></g><g clip-path="url(#c80c4b8548)"><g clip-path="url(#30a521cc51)"><g clip-path="url(#076d2ee7cc)"><path stroke-linecap="butt" transform="matrix(0.75, 0, 0, 0.75, 127.499996, 173.572899)" fill="none" stroke-linejoin="miter" d="M 0.00000516333 80.001765 C 0.00000516333 124.184059 35.817716 160.00177 80.00001 160.00177 C 124.182305 160.00177 160.000016 124.184059 160.000016 80.001765 C 160.000016 35.81947 124.182305 0.00175966 80.00001 0.00175966 C 35.817716 0.00175966 0.00000516333 35.81947 0.00000516333 80.001765 Z M 0.00000516333 80.001765 " stroke="#2563eb" stroke-width="24" stroke-opacity="1" stroke-miterlimit="4"/></g></g></g></svg>