<svg xmlns="http://www.w3.org/2000/svg" xmlns:xlink="http://www.w3.org/1999/xlink" width="500" zoomAndPan="magnify" viewBox="0 0 375 374.999991" height="500" preserveAspectRatio="xMidYMid meet" version="1.0"><defs><clipPath id="5c7fb89e14"><path d="M 140 234 L 184 234 L 184 281.25 L 140 281.25 Z M 140 234 " clip-rule="nonzero"/></clipPath><clipPath id="9db49dd8f9"><path d="M 140 234 L 184 234 L 184 281.25 L 140 281.25 Z M 140 234 " clip-rule="nonzero"/></clipPath></defs><path fill="#003d8f" d="M 129.835938 161.570312 L 117.746094 164.871094 C 109.578125 167.117188 102.722656 172.351562 98.484375 179.769531 C 94.246094 187.125 93.183594 195.726562 95.367188 203.894531 C 97.609375 212.058594 102.847656 218.917969 110.265625 223.15625 C 115.125 225.960938 120.550781 227.394531 125.972656 227.394531 C 128.777344 227.394531 131.582031 227.019531 134.386719 226.273438 L 146.480469 222.96875 Z M 129.835938 161.570312 " fill-opacity="1" fill-rule="nonzero"/><path fill="#003d8f" d="M 141.246094 156.144531 L 159.070312 221.722656 L 190.175781 222.78125 L 167.550781 139.566406 Z M 141.246094 156.144531 " fill-opacity="1" fill-rule="nonzero"/><path fill="#003d8f" d="M 178.519531 132.582031 L 203.203125 223.21875 L 219.847656 223.777344 L 192.609375 123.671875 Z M 178.519531 132.582031 " fill-opacity="1" fill-rule="nonzero"/><path fill="#003d8f" d="M 205.886719 101.167969 C 202.582031 102.101562 200.585938 105.46875 201.519531 108.835938 L 235.058594 232.070312 C 235.492188 233.6875 236.554688 235 237.988281 235.871094 C 238.921875 236.433594 239.980469 236.679688 241.101562 236.679688 C 241.664062 236.679688 242.226562 236.617188 242.722656 236.433594 L 261.300781 231.382812 L 224.523438 96.117188 Z M 205.886719 101.167969 " fill-opacity="1" fill-rule="nonzero"/><path fill="#003d8f" d="M 280.683594 169.984375 L 272.332031 139.191406 C 270.027344 130.777344 261.300781 125.789062 252.882812 128.097656 L 246.589844 129.777344 L 263.230469 191.117188 L 269.527344 189.371094 C 273.578125 188.246094 277.007812 185.628906 279.125 181.953125 C 281.246094 178.335938 281.808594 174.097656 280.683594 169.984375 Z M 280.683594 169.984375 " fill-opacity="1" fill-rule="nonzero"/><path fill="#003d8f" d="M 135.199219 122.921875 C 136.382812 124.667969 138.316406 125.601562 140.308594 125.601562 C 141.554688 125.601562 142.804688 125.230469 143.863281 124.480469 C 146.667969 122.484375 147.351562 118.621094 145.359375 115.816406 L 134.949219 100.917969 C 133.015625 98.050781 129.089844 97.367188 126.285156 99.359375 C 123.480469 101.355469 122.792969 105.21875 124.789062 108.023438 Z M 135.199219 122.921875 " fill-opacity="1" fill-rule="nonzero"/><path fill="#003d8f" d="M 166.304688 115.316406 C 166.675781 115.378906 167.050781 115.441406 167.363281 115.441406 C 170.355469 115.441406 172.972656 113.324219 173.472656 110.269531 L 174.96875 101.605469 C 175.589844 98.238281 173.285156 94.996094 169.917969 94.375 C 166.488281 93.75 163.3125 96.054688 162.6875 99.421875 L 161.191406 108.085938 C 160.628906 111.453125 162.9375 114.695312 166.304688 115.316406 Z M 166.304688 115.316406 " fill-opacity="1" fill-rule="nonzero"/><path fill="#003d8f" d="M 111.074219 145.175781 L 119.738281 146.921875 C 120.175781 146.984375 120.550781 147.046875 120.984375 147.046875 C 123.914062 147.046875 126.472656 144.988281 127.09375 142.058594 C 127.78125 138.691406 125.597656 135.390625 122.234375 134.703125 L 113.570312 132.957031 C 110.203125 132.273438 106.898438 134.453125 106.214844 137.820312 C 105.527344 141.1875 107.710938 144.488281 111.074219 145.175781 Z M 111.074219 145.175781 " fill-opacity="1" fill-rule="nonzero"/><g clip-path="url(#5c7fb89e14)"><path fill="#003d8f" d="M 153.027344 234 L 140.246094 237.492188 L 157.203125 277.449219 C 158.199219 279.816406 160.503906 281.25 162.9375 281.25 C 163.746094 281.25 164.558594 281.0625 165.367188 280.75 L 183.132812 273.207031 L 166.738281 234.4375 Z M 153.027344 234 " fill-opacity="1" fill-rule="nonzero"/></g><path fill="#003d8f" d="M 189.617188 256.503906 L 195.660156 253.949219 C 200.335938 251.953125 203.953125 248.277344 205.882812 243.601562 C 206.882812 241.105469 207.320312 238.425781 207.257812 235.808594 L 180.515625 234.9375 Z M 189.617188 256.503906 " fill-opacity="1" fill-rule="nonzero"/><path fill="#003d8f" d="M 129.835938 161.570312 L 117.746094 164.871094 C 109.578125 167.117188 102.722656 172.351562 98.484375 179.769531 C 94.246094 187.125 93.183594 195.726562 95.367188 203.894531 C 97.609375 212.058594 102.847656 218.917969 110.265625 223.15625 C 115.125 225.960938 120.550781 227.394531 125.972656 227.394531 C 128.777344 227.394531 131.582031 227.019531 134.386719 226.273438 L 146.480469 222.96875 Z M 129.835938 161.570312 " fill-opacity="1" fill-rule="nonzero"/><path fill="#003d8f" d="M 141.246094 156.144531 L 159.070312 221.722656 L 190.175781 222.78125 L 167.550781 139.566406 Z M 141.246094 156.144531 " fill-opacity="1" fill-rule="nonzero"/><path fill="#003d8f" d="M 178.519531 132.582031 L 203.203125 223.21875 L 219.847656 223.777344 L 192.609375 123.671875 Z M 178.519531 132.582031 " fill-opacity="1" fill-rule="nonzero"/><path fill="#003d8f" d="M 205.886719 101.167969 C 202.582031 102.101562 200.585938 105.46875 201.519531 108.835938 L 235.058594 232.070312 C 235.492188 233.6875 236.554688 235 237.988281 235.871094 C 238.921875 236.433594 239.980469 236.679688 241.101562 236.679688 C 241.664062 236.679688 242.226562 236.617188 242.722656 236.433594 L 261.300781 231.382812 L 224.523438 96.117188 Z M 205.886719 101.167969 " fill-opacity="1" fill-rule="nonzero"/><path fill="#003d8f" d="M 280.683594 169.984375 L 272.332031 139.191406 C 270.027344 130.777344 261.300781 125.789062 252.882812 128.097656 L 246.589844 129.777344 L 263.230469 191.117188 L 269.527344 189.371094 C 273.578125 188.246094 277.007812 185.628906 279.125 181.953125 C 281.246094 178.335938 281.808594 174.097656 280.683594 169.984375 Z M 280.683594 169.984375 " fill-opacity="1" fill-rule="nonzero"/><path fill="#003d8f" d="M 135.199219 122.921875 C 136.382812 124.667969 138.316406 125.601562 140.308594 125.601562 C 141.554688 125.601562 142.804688 125.230469 143.863281 124.480469 C 146.667969 122.484375 147.351562 118.621094 145.359375 115.816406 L 134.949219 100.917969 C 133.015625 98.050781 129.089844 97.367188 126.285156 99.359375 C 123.480469 101.355469 122.792969 105.21875 124.789062 108.023438 Z M 135.199219 122.921875 " fill-opacity="1" fill-rule="nonzero"/><path fill="#003d8f" d="M 166.304688 115.316406 C 166.675781 115.378906 167.050781 115.441406 167.363281 115.441406 C 170.355469 115.441406 172.972656 113.324219 173.472656 110.269531 L 174.96875 101.605469 C 175.589844 98.238281 173.285156 94.996094 169.917969 94.375 C 166.488281 93.75 163.3125 96.054688 162.6875 99.421875 L 161.191406 108.085938 C 160.628906 111.453125 162.9375 114.695312 166.304688 115.316406 Z M 166.304688 115.316406 " fill-opacity="1" fill-rule="nonzero"/><path fill="#003d8f" d="M 111.074219 145.175781 L 119.738281 146.921875 C 120.175781 146.984375 120.550781 147.046875 120.984375 147.046875 C 123.914062 147.046875 126.472656 144.988281 127.09375 142.058594 C 127.78125 138.691406 125.597656 135.390625 122.234375 134.703125 L 113.570312 132.957031 C 110.203125 132.273438 106.898438 134.453125 106.214844 137.820312 C 105.527344 141.1875 107.710938 144.488281 111.074219 145.175781 Z M 111.074219 145.175781 " fill-opacity="1" fill-rule="nonzero"/><g clip-path="url(#9db49dd8f9)"><path fill="#003d8f" d="M 153.027344 234 L 140.246094 237.492188 L 157.203125 277.449219 C 158.199219 279.816406 160.503906 281.25 162.9375 281.25 C 163.746094 281.25 164.558594 281.0625 165.367188 280.75 L 183.132812 273.207031 L 166.738281 234.4375 Z M 153.027344 234 " fill-opacity="1" fill-rule="nonzero"/></g><path fill="#003d8f" d="M 189.617188 256.503906 L 195.660156 253.949219 C 200.335938 251.953125 203.953125 248.277344 205.882812 243.601562 C 206.882812 241.105469 207.320312 238.425781 207.257812 235.808594 L 180.515625 234.9375 Z M 189.617188 256.503906 " fill-opacity="1" fill-rule="nonzero"/></svg>