<svg xmlns="http://www.w3.org/2000/svg" xmlns:xlink="http://www.w3.org/1999/xlink" width="500" zoomAndPan="magnify" viewBox="0 0 375 374.999991" height="500" preserveAspectRatio="xMidYMid meet" version="1.0"><defs><clipPath id="ceaafe66e7"><path d="M 91 93.75 L 307 93.75 L 307 281.25 L 91 281.25 Z M 91 93.75 " clip-rule="nonzero"/></clipPath></defs><g clip-path="url(#ceaafe66e7)"><path fill="#003d8f" d="M 236.324219 117.519531 C 221.398438 106.566406 203.59375 100.773438 185.074219 100.773438 C 117.101562 100.773438 76.542969 175.164062 110.664062 232.03125 C 111.648438 233.671875 111.113281 235.796875 109.472656 236.777344 C 107.832031 237.757812 105.707031 237.226562 104.722656 235.585938 C 67.863281 174.152344 111.648438 93.828125 185.074219 93.828125 C 204.546875 93.828125 223.441406 99.847656 239.296875 111.125 L 237.71875 105.601562 C 237.195312 103.757812 238.265625 101.835938 240.109375 101.3125 C 241.949219 100.789062 243.871094 101.859375 244.394531 103.699219 L 248.957031 119.699219 C 249.609375 121.980469 247.828125 124.199219 245.5 124.117188 L 229.117188 124.707031 C 227.207031 124.773438 225.605469 123.277344 225.535156 121.367188 C 225.46875 119.457031 226.964844 117.855469 228.875 117.785156 Z M 289.242188 114.25 C 288.75 116.101562 286.847656 117.199219 284.996094 116.707031 C 283.148438 116.210938 282.046875 114.308594 282.542969 112.460938 L 283.917969 107.324219 C 284.414062 105.472656 286.3125 104.375 288.164062 104.867188 C 290.015625 105.363281 291.113281 107.265625 290.621094 109.113281 Z M 298.496094 124.929688 C 296.839844 125.890625 294.722656 125.324219 293.761719 123.667969 C 292.804688 122.011719 293.367188 119.894531 295.023438 118.933594 L 299.628906 116.277344 C 301.285156 115.316406 303.40625 115.882812 304.363281 117.535156 C 305.324219 119.191406 304.757812 121.3125 303.101562 122.269531 Z M 304.152344 133.742188 C 306.003906 134.234375 307.101562 136.136719 306.609375 137.988281 C 306.113281 139.835938 304.214844 140.9375 302.363281 140.441406 L 297.226562 139.066406 C 295.375 138.570312 294.277344 136.671875 294.769531 134.820312 C 295.265625 132.96875 297.167969 131.871094 299.015625 132.363281 Z M 242.429688 138.382812 L 230.824219 145.082031 C 224.75 148.589844 222.648438 156.429688 226.15625 162.503906 C 229.660156 168.578125 237.5 170.679688 243.574219 167.171875 L 255.179688 160.472656 Z M 247.453125 133.195312 L 262.027344 158.4375 C 267.933594 157.09375 273.921875 156.699219 279.835938 156.691406 L 257.632812 118.230469 C 254.648438 123.316406 251.359375 128.578125 247.453125 133.195312 Z M 261.640625 111.320312 L 287.941406 156.867188 C 288.335938 156.882812 288.730469 156.898438 289.125 156.914062 C 292.183594 157.042969 294.167969 153.761719 292.636719 151.109375 L 284.800781 137.539062 L 285.121094 137.355469 C 288.726562 135.273438 289.960938 130.664062 287.878906 127.058594 C 285.796875 123.457031 281.191406 122.222656 277.585938 124.300781 L 277.265625 124.488281 L 269.015625 110.191406 C 267.535156 107.632812 263.835938 107.609375 262.328125 110.152344 C 262.101562 110.535156 261.871094 110.925781 261.640625 111.320312 Z M 266.816406 180.625 L 264.691406 181.851562 C 261.351562 183.78125 257.050781 182.628906 255.121094 179.289062 L 250.460938 171.21875 L 258.132812 166.789062 C 258.324219 166.71875 258.515625 166.652344 258.710938 166.585938 Z M 157.160156 185.125 L 175.085938 171.167969 L 192.730469 176.886719 C 194.011719 177.296875 195.355469 176.921875 196.242188 176.03125 L 209.710938 162.449219 C 210.265625 163.171875 211.105469 163.675781 212.082031 163.785156 C 213.988281 163.996094 215.699219 162.621094 215.910156 160.71875 L 216.589844 154.636719 C 216.96875 152.425781 215.132812 150.390625 212.867188 150.585938 L 206.558594 151.140625 C 204.648438 151.304688 203.234375 152.988281 203.398438 154.898438 C 203.492188 155.976562 204.070312 156.898438 204.898438 157.464844 L 192.828125 169.640625 L 175.46875 164.015625 C 174.414062 163.679688 173.21875 163.851562 172.28125 164.582031 L 152.902344 179.671875 C 151.394531 180.847656 151.128906 183.023438 152.304688 184.527344 C 153.480469 186.035156 155.652344 186.300781 157.160156 185.125 Z M 151.980469 194.863281 C 150.785156 194.863281 149.8125 195.835938 149.8125 197.03125 L 149.8125 213.082031 C 149.8125 214.277344 150.785156 215.25 151.980469 215.25 L 158.078125 215.25 C 159.273438 215.25 160.25 214.277344 160.25 213.082031 L 160.25 197.03125 C 160.25 195.835938 159.273438 194.863281 158.078125 194.863281 Z M 210.117188 172.589844 C 208.921875 172.589844 207.949219 173.566406 207.949219 174.761719 L 207.949219 213.082031 C 207.949219 214.277344 208.921875 215.25 210.117188 215.25 L 216.214844 215.25 C 217.410156 215.25 218.386719 214.277344 218.386719 213.082031 L 218.386719 174.761719 C 218.386719 173.566406 217.410156 172.589844 216.214844 172.589844 Z M 190.742188 186.289062 C 189.546875 186.289062 188.570312 187.265625 188.570312 188.460938 C 188.570312 198.308594 188.570312 203.234375 188.570312 213.082031 C 188.570312 214.277344 189.546875 215.25 190.742188 215.25 C 192.773438 215.25 194.804688 215.25 196.835938 215.25 C 198.03125 215.25 199.007812 214.277344 199.007812 213.082031 C 199.007812 203.234375 199.007812 198.304688 199.007812 188.460938 C 199.007812 187.265625 198.03125 186.289062 196.835938 186.289062 C 194.804688 186.289062 192.773438 186.289062 190.742188 186.289062 Z M 171.363281 181.941406 C 170.164062 181.941406 169.191406 182.914062 169.191406 184.109375 L 169.191406 213.082031 C 169.191406 214.277344 170.164062 215.253906 171.363281 215.253906 L 177.457031 215.253906 C 178.652344 215.253906 179.628906 214.277344 179.628906 213.082031 L 179.628906 184.109375 C 179.628906 182.914062 178.652344 181.941406 177.457031 181.941406 Z M 199.664062 126.351562 L 194.988281 114.207031 L 175.15625 114.207031 L 170.484375 126.351562 C 164.015625 127.890625 157.835938 130.453125 152.171875 133.941406 L 140.277344 128.65625 L 126.253906 142.679688 L 131.535156 154.578125 C 128.050781 160.238281 125.484375 166.417969 123.945312 172.890625 L 111.804688 177.5625 L 111.804688 197.394531 L 123.941406 202.066406 C 125.484375 208.539062 128.046875 214.71875 131.535156 220.382812 L 126.253906 232.277344 L 140.277344 246.300781 L 152.175781 241.015625 C 157.835938 244.5 164.015625 247.066406 170.484375 248.605469 L 175.160156 260.746094 L 194.988281 260.746094 L 199.664062 248.609375 C 206.132812 247.070312 212.316406 244.503906 217.976562 241.015625 L 229.871094 246.296875 L 243.894531 232.273438 L 238.609375 220.375 C 242.097656 214.714844 244.664062 208.535156 246.203125 202.066406 L 258.34375 197.394531 L 258.34375 189.429688 C 254.585938 188.644531 251.167969 186.328125 249.105469 182.757812 L 244.328125 174.488281 C 241.746094 175.488281 239.039062 175.90625 236.371094 175.789062 C 237.226562 179.546875 237.679688 183.460938 237.679688 187.476562 C 237.679688 216.53125 214.128906 240.082031 185.074219 240.082031 C 156.019531 240.082031 132.46875 216.53125 132.46875 187.476562 C 132.46875 158.421875 156.019531 134.871094 185.074219 134.871094 C 198.210938 134.871094 210.222656 139.6875 219.441406 147.648438 C 221.09375 144.164062 223.777344 141.128906 227.351562 139.066406 L 235.550781 134.332031 L 229.871094 128.65625 L 217.972656 133.941406 C 212.3125 130.453125 206.132812 127.890625 199.664062 126.351562 Z M 132.425781 269.355469 L 130.851562 263.832031 C 146.710938 275.113281 165.597656 281.128906 185.074219 281.128906 C 246.800781 281.128906 291.09375 222.636719 275.679688 163.71875 C 273.324219 163.8125 270.980469 163.992188 268.652344 164.304688 C 283.796875 219.066406 242.71875 274.183594 185.074219 274.183594 C 166.5625 274.183594 148.753906 268.386719 133.839844 257.4375 L 141.273438 257.167969 C 143.183594 257.101562 144.679688 255.5 144.613281 253.589844 C 144.542969 251.675781 142.941406 250.183594 141.03125 250.25 L 124.648438 250.839844 C 122.320312 250.757812 120.539062 252.976562 121.1875 255.257812 L 125.753906 271.253906 C 126.277344 273.097656 128.199219 274.167969 130.039062 273.644531 C 131.882812 273.117188 132.953125 271.199219 132.425781 269.355469 Z M 132.425781 269.355469 " fill-opacity="1" fill-rule="evenodd"/></g></svg>