<svg xmlns="http://www.w3.org/2000/svg" xmlns:xlink="http://www.w3.org/1999/xlink" width="500" zoomAndPan="magnify" viewBox="0 0 375 374.999991" height="500" preserveAspectRatio="xMidYMid meet" version="1.0"><defs><clipPath id="7a151b13dd"><path d="M 158 157 L 281.765625 157 L 281.765625 281 L 158 281 Z M 158 157 " clip-rule="nonzero"/></clipPath><clipPath id="b17ab87af3"><path d="M 93.515625 93.75 L 245 93.75 L 245 246 L 93.515625 246 Z M 93.515625 93.75 " clip-rule="nonzero"/></clipPath><clipPath id="e3ae62baeb"><path d="M 158 157 L 281.765625 157 L 281.765625 281 L 158 281 Z M 158 157 " clip-rule="nonzero"/></clipPath><clipPath id="0d41dea260"><path d="M 93.515625 93.75 L 245 93.75 L 245 246 L 93.515625 246 Z M 93.515625 93.75 " clip-rule="nonzero"/></clipPath></defs><g clip-path="url(#7a151b13dd)"><path fill="#003d8f" d="M 184.589844 276.410156 L 162.035156 280.84375 C 159.847656 281.273438 157.90625 279.378906 158.289062 277.175781 L 162.273438 254.035156 C 163.390625 254.015625 164.519531 254.089844 165.628906 254.246094 C 170.210938 254.882812 174.628906 256.957031 178.144531 260.476562 C 181.660156 263.992188 183.738281 268.410156 184.371094 272.988281 C 184.535156 274.125 184.605469 275.269531 184.589844 276.410156 Z M 281.449219 174.519531 C 281.449219 170.078125 279.753906 165.636719 276.367188 162.25 C 269.59375 155.476562 258.613281 155.472656 251.835938 162.25 L 171.078125 243.007812 C 176.808594 244.476562 182.222656 247.441406 186.699219 251.917969 C 191.175781 256.394531 194.144531 261.8125 195.613281 267.539062 L 276.367188 186.785156 C 279.753906 183.398438 281.453125 178.953125 281.449219 174.519531 Z M 281.449219 174.519531 " fill-opacity="1" fill-rule="nonzero"/></g><g clip-path="url(#b17ab87af3)"><path fill="#003d8f" d="M 161.140625 234.972656 C 151.6875 229.941406 143.691406 217.457031 139.128906 201.257812 C 148.710938 196.175781 159.433594 193.496094 170.375 193.496094 C 179.609375 193.496094 188.675781 195.425781 197.039062 199.074219 L 215.453125 180.660156 C 215.695312 177.386719 215.820312 174.042969 215.820312 170.640625 C 215.820312 161.535156 214.921875 152.855469 213.277344 144.8125 C 217.957031 141.664062 222.257812 138.023438 226.136719 133.933594 C 231.355469 141.8125 234.769531 150.578125 236.265625 159.847656 L 242.847656 153.265625 C 243.476562 152.636719 244.132812 152.042969 244.804688 151.480469 C 242.109375 141.027344 237.234375 131.171875 230.445312 122.683594 C 215.773438 104.308594 193.878906 93.769531 170.375 93.769531 C 146.871094 93.769531 124.976562 104.308594 110.308594 122.679688 C 99.472656 136.230469 93.503906 153.261719 93.503906 170.640625 C 93.503906 188.027344 99.472656 205.0625 110.304688 218.609375 C 120.855469 231.8125 135.144531 240.941406 151.070312 245.042969 Z M 203.933594 191.089844 C 193.527344 186.039062 182.058594 183.382812 170.375 183.382812 C 158.691406 183.382812 147.222656 186.039062 136.816406 191.089844 C 135.671875 184.613281 135.042969 177.738281 135.042969 170.640625 C 135.042969 163.542969 135.671875 156.667969 136.816406 150.191406 C 147.222656 155.246094 158.691406 157.898438 170.375 157.898438 C 182.058594 157.898438 193.527344 155.246094 203.933594 150.191406 C 205.078125 156.667969 205.707031 163.542969 205.707031 170.640625 C 205.707031 177.738281 205.078125 184.613281 203.933594 191.089844 Z M 219.84375 125.832031 C 217.023438 128.945312 213.933594 131.777344 210.589844 134.300781 C 207.667969 124.890625 203.625 116.703125 198.742188 110.191406 C 206.660156 113.90625 213.832031 119.183594 219.84375 125.832031 Z M 170.375 103.886719 C 183.730469 103.886719 195.632812 118.757812 201.621094 140.027344 C 192.039062 145.109375 181.316406 147.785156 170.375 147.785156 C 159.433594 147.785156 148.710938 145.109375 139.128906 140.027344 C 145.117188 118.757812 157.019531 103.886719 170.375 103.886719 Z M 142.007812 110.191406 C 137.125 116.703125 133.082031 124.890625 130.160156 134.300781 C 126.816406 131.777344 123.726562 128.945312 120.90625 125.832031 C 126.917969 119.183594 134.089844 113.90625 142.007812 110.191406 Z M 114.613281 207.355469 C 107.40625 196.472656 103.617188 183.902344 103.617188 170.640625 C 103.617188 157.386719 107.40625 144.816406 114.613281 133.933594 C 118.492188 138.023438 122.792969 141.664062 127.472656 144.8125 C 125.828125 152.855469 124.929688 161.535156 124.929688 170.640625 C 124.929688 179.746094 125.828125 188.425781 127.472656 196.46875 C 122.789062 199.625 118.484375 203.265625 114.613281 207.355469 Z M 120.90625 215.457031 C 123.722656 212.339844 126.816406 209.507812 130.160156 206.980469 C 133.082031 216.390625 137.125 224.578125 142.007812 231.09375 C 134.09375 227.378906 126.917969 222.105469 120.90625 215.457031 Z M 120.90625 215.457031 " fill-opacity="1" fill-rule="nonzero"/></g><g clip-path="url(#e3ae62baeb)"><path fill="#003d8f" d="M 184.589844 276.410156 L 162.035156 280.84375 C 159.847656 281.273438 157.90625 279.378906 158.289062 277.175781 L 162.273438 254.035156 C 163.390625 254.015625 164.519531 254.089844 165.628906 254.246094 C 170.210938 254.882812 174.628906 256.957031 178.144531 260.476562 C 181.660156 263.992188 183.738281 268.410156 184.371094 272.988281 C 184.535156 274.125 184.605469 275.269531 184.589844 276.410156 Z M 281.449219 174.519531 C 281.449219 170.078125 279.753906 165.636719 276.367188 162.25 C 269.59375 155.476562 258.613281 155.472656 251.835938 162.25 L 171.078125 243.007812 C 176.808594 244.476562 182.222656 247.441406 186.699219 251.917969 C 191.175781 256.394531 194.144531 261.8125 195.613281 267.539062 L 276.367188 186.785156 C 279.753906 183.398438 281.453125 178.953125 281.449219 174.519531 Z M 281.449219 174.519531 " fill-opacity="1" fill-rule="nonzero"/></g><g clip-path="url(#0d41dea260)"><path fill="#003d8f" d="M 161.140625 234.972656 C 151.6875 229.941406 143.691406 217.457031 139.128906 201.257812 C 148.710938 196.175781 159.433594 193.496094 170.375 193.496094 C 179.609375 193.496094 188.675781 195.425781 197.039062 199.074219 L 215.453125 180.660156 C 215.695312 177.386719 215.820312 174.042969 215.820312 170.640625 C 215.820312 161.535156 214.921875 152.855469 213.277344 144.8125 C 217.957031 141.664062 222.257812 138.023438 226.136719 133.933594 C 231.355469 141.8125 234.769531 150.578125 236.265625 159.847656 L 242.847656 153.265625 C 243.476562 152.636719 244.132812 152.042969 244.804688 151.480469 C 242.109375 141.027344 237.234375 131.171875 230.445312 122.683594 C 215.773438 104.308594 193.878906 93.769531 170.375 93.769531 C 146.871094 93.769531 124.976562 104.308594 110.308594 122.679688 C 99.472656 136.230469 93.503906 153.261719 93.503906 170.640625 C 93.503906 188.027344 99.472656 205.0625 110.304688 218.609375 C 120.855469 231.8125 135.144531 240.941406 151.070312 245.042969 Z M 203.933594 191.089844 C 193.527344 186.039062 182.058594 183.382812 170.375 183.382812 C 158.691406 183.382812 147.222656 186.039062 136.816406 191.089844 C 135.671875 184.613281 135.042969 177.738281 135.042969 170.640625 C 135.042969 163.542969 135.671875 156.667969 136.816406 150.191406 C 147.222656 155.246094 158.691406 157.898438 170.375 157.898438 C 182.058594 157.898438 193.527344 155.246094 203.933594 150.191406 C 205.078125 156.667969 205.707031 163.542969 205.707031 170.640625 C 205.707031 177.738281 205.078125 184.613281 203.933594 191.089844 Z M 219.84375 125.832031 C 217.023438 128.945312 213.933594 131.777344 210.589844 134.300781 C 207.667969 124.890625 203.625 116.703125 198.742188 110.191406 C 206.660156 113.90625 213.832031 119.183594 219.84375 125.832031 Z M 170.375 103.886719 C 183.730469 103.886719 195.632812 118.757812 201.621094 140.027344 C 192.039062 145.109375 181.316406 147.785156 170.375 147.785156 C 159.433594 147.785156 148.710938 145.109375 139.128906 140.027344 C 145.117188 118.757812 157.019531 103.886719 170.375 103.886719 Z M 142.007812 110.191406 C 137.125 116.703125 133.082031 124.890625 130.160156 134.300781 C 126.816406 131.777344 123.726562 128.945312 120.90625 125.832031 C 126.917969 119.183594 134.089844 113.90625 142.007812 110.191406 Z M 114.613281 207.355469 C 107.40625 196.472656 103.617188 183.902344 103.617188 170.640625 C 103.617188 157.386719 107.40625 144.816406 114.613281 133.933594 C 118.492188 138.023438 122.792969 141.664062 127.472656 144.8125 C 125.828125 152.855469 124.929688 161.535156 124.929688 170.640625 C 124.929688 179.746094 125.828125 188.425781 127.472656 196.46875 C 122.789062 199.625 118.484375 203.265625 114.613281 207.355469 Z M 120.90625 215.457031 C 123.722656 212.339844 126.816406 209.507812 130.160156 206.980469 C 133.082031 216.390625 137.125 224.578125 142.007812 231.09375 C 134.09375 227.378906 126.917969 222.105469 120.90625 215.457031 Z M 120.90625 215.457031 " fill-opacity="1" fill-rule="nonzero"/></g></svg>