<svg xmlns="http://www.w3.org/2000/svg" xmlns:xlink="http://www.w3.org/1999/xlink" width="500" zoomAndPan="magnify" viewBox="0 0 375 374.999991" height="500" preserveAspectRatio="xMidYMid meet" version="1.0"><defs><clipPath id="2b2b4618cb"><path d="M 88.554688 93.75 L 219 93.75 L 219 280 L 88.554688 280 Z M 88.554688 93.75 " clip-rule="nonzero"/></clipPath></defs><g clip-path="url(#2b2b4618cb)"><path fill="#003d8f" d="M 218.503906 145.367188 L 218.503906 128.46875 L 184.015625 128.46875 L 184.015625 93.980469 L 95.894531 93.980469 C 91.851562 93.980469 88.554688 97.277344 88.554688 101.320312 L 88.554688 272.386719 C 88.554688 276.429688 91.851562 279.726562 95.894531 279.726562 L 211.160156 279.726562 C 215.203125 279.726562 218.503906 276.429688 218.503906 272.386719 L 218.503906 243.089844 C 212.773438 245.253906 206.566406 246.4375 200.082031 246.4375 C 188.65625 246.4375 178.089844 242.765625 169.492188 236.539062 L 121.589844 236.539062 L 121.589844 232.171875 L 164.21875 232.171875 C 158.828125 227.074219 154.527344 220.839844 151.6875 213.851562 L 121.589844 213.851562 L 121.589844 209.484375 L 150.136719 209.484375 C 148.664062 204.660156 147.871094 199.535156 147.871094 194.230469 C 147.871094 193.199219 147.902344 192.179688 147.964844 191.167969 L 121.589844 191.167969 L 121.589844 186.796875 L 148.402344 186.796875 C 149.464844 179.339844 152.101562 172.390625 155.96875 166.296875 L 109.84375 166.296875 L 109.84375 146.472656 L 178.957031 146.472656 C 185.417969 143.613281 192.5625 142.019531 200.082031 142.019531 C 206.566406 142.019531 212.773438 143.207031 218.503906 145.367188 Z M 121.589844 254.855469 L 185.464844 254.855469 L 185.464844 259.226562 L 121.589844 259.226562 Z M 216.316406 124.097656 L 188.382812 96.164062 L 188.382812 124.097656 Z M 216.316406 124.097656 " fill-opacity="1" fill-rule="evenodd"/></g><path fill="#003d8f" d="M 152.242188 194.230469 C 152.242188 167.808594 173.660156 146.386719 200.082031 146.386719 C 226.503906 146.386719 247.921875 167.808594 247.921875 194.230469 C 247.921875 220.648438 226.503906 242.070312 200.082031 242.070312 C 173.660156 242.070312 152.242188 220.648438 152.242188 194.230469 Z M 168.164062 194.664062 C 168.164062 177.035156 182.453125 162.746094 200.078125 162.746094 C 217.707031 162.746094 231.996094 177.035156 231.996094 194.664062 C 231.996094 212.289062 217.707031 226.578125 200.078125 226.578125 C 182.453125 226.578125 168.164062 212.289062 168.164062 194.664062 Z M 168.164062 194.664062 " fill-opacity="1" fill-rule="evenodd"/><path fill="#003d8f" d="M 248.390625 229.828125 L 242.804688 224.242188 C 239.210938 229.34375 234.730469 233.773438 229.582031 237.304688 L 235.25 242.96875 C 235.609375 242.445312 236.027344 241.941406 236.492188 241.476562 L 246.894531 231.074219 C 247.363281 230.605469 247.863281 230.191406 248.390625 229.828125 Z M 248.390625 229.828125 " fill-opacity="1" fill-rule="evenodd"/><path fill="#003d8f" d="M 239.582031 244.566406 L 249.984375 234.164062 C 252.453125 231.695312 256.488281 231.695312 258.957031 234.164062 L 281.152344 256.359375 C 286.480469 261.6875 286.480469 270.402344 281.152344 275.730469 C 275.824219 281.058594 267.105469 281.058594 261.777344 275.730469 L 239.582031 253.535156 C 237.117188 251.070312 237.117188 247.03125 239.582031 244.566406 Z M 239.582031 244.566406 " fill-opacity="1" fill-rule="evenodd"/></svg>