<svg xmlns="http://www.w3.org/2000/svg" xmlns:xlink="http://www.w3.org/1999/xlink" width="500" zoomAndPan="magnify" viewBox="0 0 375 374.999991" height="500" preserveAspectRatio="xMidYMid meet" version="1.0"><defs><clipPath id="a90216ef0f"><path d="M 72.117188 101.25 L 303 101.25 L 303 273.75 L 72.117188 273.75 Z M 72.117188 101.25 " clip-rule="nonzero"/></clipPath></defs><path fill="#003d8f" d="M 121.027344 158.292969 C 115.855469 158.292969 111.675781 162.476562 111.675781 167.648438 C 111.675781 172.820312 115.855469 177 121.027344 177 C 126.199219 177 130.378906 172.820312 130.378906 167.648438 C 130.378906 162.476562 126.175781 158.292969 121.027344 158.292969 Z M 121.027344 158.292969 " fill-opacity="1" fill-rule="nonzero"/><g clip-path="url(#a90216ef0f)"><path fill="#003d8f" d="M 300.65625 191.546875 L 283.355469 165.15625 C 282.894531 164.359375 282.628906 163.417969 282.53125 162.355469 C 279.488281 127.53125 250.828125 101.261719 215.882812 101.261719 C 205.488281 101.261719 195.65625 103.703125 186.882812 107.957031 C 178.085938 103.703125 168.273438 101.261719 157.882812 101.261719 C 122.9375 101.261719 94.277344 127.53125 91.230469 162.355469 C 91.132812 163.441406 90.867188 164.382812 90.578125 164.917969 L 74.652344 189.15625 C 72.308594 192.757812 72.117188 197.324219 74.144531 201.09375 C 76.175781 204.863281 80.113281 207.207031 84.390625 207.207031 L 90.867188 207.207031 L 90.867188 229.632812 C 90.867188 237.996094 97.660156 244.785156 106.019531 244.785156 L 123.082031 244.785156 L 123.082031 269.050781 C 123.082031 270.378906 123.636719 271.636719 124.605469 272.503906 C 125.476562 273.304688 126.609375 273.738281 127.769531 273.738281 C 127.914062 273.738281 128.035156 273.738281 128.179688 273.714844 L 186.859375 268.542969 L 245.535156 273.714844 C 245.679688 273.714844 245.800781 273.738281 245.945312 273.738281 C 247.105469 273.738281 248.242188 273.304688 249.109375 272.503906 C 250.078125 271.613281 250.632812 270.355469 250.632812 269.050781 L 250.632812 244.785156 L 271.175781 244.785156 C 277.628906 244.785156 282.871094 239.542969 282.871094 233.089844 L 282.871094 210.496094 C 282.871094 208.65625 284.34375 207.183594 286.183594 207.183594 L 292.199219 207.183594 C 295.921875 207.183594 299.328125 205.152344 301.09375 201.867188 C 302.882812 198.628906 302.710938 194.664062 300.65625 191.546875 Z M 176.828125 260.011719 L 132.484375 263.925781 L 132.484375 243.09375 C 132.484375 238.839844 129.027344 235.386719 124.773438 235.386719 L 105.996094 235.386719 C 102.832031 235.386719 100.246094 232.800781 100.246094 229.632812 L 100.246094 204.550781 C 100.246094 200.828125 97.222656 197.808594 93.503906 197.808594 L 84.390625 197.808594 C 83.183594 197.808594 82.605469 196.984375 82.410156 196.621094 C 82.21875 196.261719 81.832031 195.316406 82.507812 194.304688 L 98.578125 169.773438 C 99.6875 167.816406 100.367188 165.570312 100.582031 163.152344 C 103.195312 133.234375 127.820312 110.664062 157.859375 110.664062 C 164.503906 110.664062 170.859375 111.847656 176.804688 113.925781 C 159.9375 126.128906 148.890625 145.898438 148.890625 168.277344 C 148.890625 189.664062 158.800781 210.953125 175.402344 225.234375 C 176.320312 226.007812 176.828125 227.074219 176.828125 228.113281 Z M 259.695312 176.589844 C 254.742188 176.589844 250.730469 172.578125 250.730469 167.625 C 250.730469 162.667969 254.742188 158.65625 259.695312 158.65625 C 264.648438 158.65625 268.660156 162.667969 268.660156 167.625 C 268.660156 172.578125 264.648438 176.589844 259.695312 176.589844 Z M 259.695312 176.589844 " fill-opacity="1" fill-rule="nonzero"/></g></svg>