<svg xmlns="http://www.w3.org/2000/svg" xmlns:xlink="http://www.w3.org/1999/xlink" width="500" zoomAndPan="magnify" viewBox="0 0 375 374.999991" height="500" preserveAspectRatio="xMidYMid meet" version="1.0"><path fill="#003d8f" d="M 253.34375 185.136719 C 253.34375 146.203125 223.738281 114.535156 187.332031 114.535156 C 150.945312 114.535156 121.324219 146.203125 121.324219 185.136719 C 121.324219 224.074219 150.9375 255.738281 187.332031 255.738281 C 223.738281 255.738281 253.34375 224.066406 253.34375 185.136719 Z M 132.460938 185.136719 C 132.460938 181.617188 132.800781 178.195312 133.34375 174.847656 C 137.359375 171.859375 146.59375 164.914062 152.417969 159.761719 C 158.214844 162.109375 170.460938 166.0625 187.332031 166.0625 C 204.207031 166.0625 216.460938 162.109375 222.25 159.761719 C 228.074219 164.921875 237.308594 171.859375 241.332031 174.847656 C 241.871094 178.203125 242.214844 181.617188 242.214844 185.136719 C 242.214844 217.921875 217.601562 244.617188 187.332031 244.617188 C 157.082031 244.609375 132.460938 217.921875 132.460938 185.136719 Z M 132.460938 185.136719 " fill-opacity="1" fill-rule="nonzero"/><path fill="#003d8f" d="M 290.609375 169.128906 C 287.839844 162.34375 283.601562 157.910156 278.003906 155.957031 C 272.824219 154.148438 267.859375 155.027344 264.527344 156.101562 C 253.761719 120.800781 223.695312 96.007812 187.332031 96.007812 C 150.988281 96.007812 120.917969 120.800781 110.140625 156.09375 C 106.816406 155.027344 101.851562 154.148438 96.660156 155.953125 C 91.074219 157.894531 86.828125 162.332031 84.058594 169.125 C 78.941406 181.683594 81.445312 200.082031 89.75 211.011719 C 94.761719 217.589844 101.554688 221.105469 109.128906 221.105469 C 110.097656 221.105469 111.074219 221.050781 112.070312 220.941406 C 114.867188 220.609375 116.980469 218.230469 116.980469 215.410156 L 116.980469 185.136719 C 116.980469 141.398438 147.890625 107.152344 187.332031 107.152344 C 226.792969 107.152344 257.691406 141.40625 257.691406 185.136719 L 257.691406 215.410156 C 257.691406 216.34375 257.984375 217.191406 258.398438 217.964844 C 254.269531 228.324219 239.730469 257.433594 204.769531 264.984375 C 203.226562 263.21875 200.976562 262.082031 198.441406 262.082031 L 176.234375 262.082031 C 171.578125 262.082031 167.789062 265.863281 167.789062 270.539062 C 167.789062 275.195312 171.570312 278.984375 176.234375 278.984375 L 198.441406 278.984375 C 202.542969 278.984375 205.964844 276.050781 206.722656 272.15625 C 243.832031 263.882812 260.128906 232.882812 265.074219 221.089844 C 265.226562 221.089844 265.390625 221.121094 265.546875 221.121094 C 273.113281 221.121094 279.914062 217.601562 284.917969 211.023438 C 293.226562 200.082031 295.726562 181.683594 290.609375 169.128906 Z M 290.609375 169.128906 " fill-opacity="1" fill-rule="nonzero"/></svg>