<svg xmlns="http://www.w3.org/2000/svg" xmlns:xlink="http://www.w3.org/1999/xlink" width="500" zoomAndPan="magnify" viewBox="0 0 375 374.999991" height="500" preserveAspectRatio="xMidYMid meet" version="1.0"><defs><clipPath id="99bf42b466"><path d="M 93.042969 93.75 L 282 93.75 L 282 281.25 L 93.042969 281.25 Z M 93.042969 93.75 " clip-rule="nonzero"/></clipPath></defs><g clip-path="url(#99bf42b466)"><path fill="#003d8f" d="M 265.769531 93.75 L 178.757812 93.75 C 169.832031 93.75 162.648438 100.96875 162.648438 109.855469 L 162.648438 175.835938 C 162.648438 184.722656 169.871094 191.941406 178.757812 191.941406 L 242.21875 191.941406 C 243.476562 191.90625 244.550781 193.128906 244.367188 194.386719 C 243.441406 201.347656 241.292969 207.273438 237.738281 213.34375 C 247.699219 208.789062 255.992188 202.125 261.621094 192.980469 C 262.324219 191.574219 264.546875 192.015625 265.769531 191.941406 C 274.652344 191.941406 281.910156 184.722656 281.910156 175.835938 L 281.910156 109.894531 C 281.910156 101.007812 274.652344 93.75 265.769531 93.75 Z M 180.902344 106.746094 C 180.902344 106.746094 269.582031 106.746094 269.582031 106.746094 C 272.359375 106.78125 272.433594 110.96875 269.582031 111.042969 L 180.902344 111.042969 C 178.128906 111.003906 178.089844 106.820312 180.902344 106.746094 Z M 269.582031 141.773438 L 220.523438 141.773438 C 217.707031 141.734375 217.707031 137.550781 220.523438 137.476562 C 220.523438 137.476562 269.582031 137.476562 269.582031 137.476562 C 272.359375 137.550781 272.394531 141.734375 269.582031 141.773438 Z M 180.902344 122.445312 C 180.902344 122.445312 269.582031 122.445312 269.582031 122.445312 C 272.359375 122.480469 272.433594 126.667969 269.582031 126.738281 L 180.902344 126.738281 C 178.128906 126.667969 178.089844 122.480469 180.902344 122.445312 Z M 223.039062 161.46875 C 222.558594 161.988281 222.003906 162.394531 221.375 162.691406 C 222.078125 164.839844 221.039062 167.320312 219.152344 168.503906 C 220.410156 171.617188 218.078125 175.207031 214.746094 175.503906 C 215.449219 178.6875 212.746094 181.761719 209.488281 181.722656 L 190.273438 181.722656 C 188.789062 181.761719 187.421875 181.132812 186.273438 180.242188 C 185.644531 180.761719 184.828125 181.09375 183.976562 181.09375 L 176.203125 181.09375 C 174.203125 181.09375 172.535156 179.464844 172.535156 177.464844 L 172.535156 153.953125 C 172.535156 151.953125 174.203125 150.289062 176.203125 150.289062 L 183.976562 150.289062 C 185.644531 150.289062 187.050781 151.4375 187.496094 152.992188 C 189.308594 152.511719 191.160156 151.695312 192.050781 149.957031 C 192.050781 149.957031 198.492188 138.441406 198.492188 138.441406 C 199.011719 137.515625 199.863281 136.847656 200.898438 136.550781 C 205.675781 135.589844 208.894531 141.773438 207.007812 145.773438 C 207.007812 145.773438 204.121094 152.769531 204.121094 152.769531 L 219.039062 152.769531 C 223.558594 152.621094 226.113281 158.25 223.039062 161.46875 Z M 269.582031 173.726562 L 240.628906 173.726562 C 237.8125 173.6875 237.8125 169.503906 240.628906 169.429688 L 269.582031 169.429688 C 272.394531 169.503906 272.394531 173.6875 269.582031 173.726562 Z M 269.582031 158.0625 L 240.628906 158.0625 C 237.8125 158.027344 237.8125 153.84375 240.628906 153.769531 L 269.582031 153.769531 C 272.394531 153.804688 272.394531 158.027344 269.582031 158.0625 Z M 176.832031 154.582031 L 183.347656 154.582031 L 183.347656 176.835938 L 176.832031 176.835938 Z M 220.113281 157.878906 C 220.113281 158.546875 219.820312 158.84375 219.1875 158.914062 L 204.304688 158.914062 C 201.492188 158.914062 201.492188 163.175781 204.304688 163.210938 L 216.375 163.210938 C 217.707031 163.285156 217.558594 165.097656 216.265625 165.097656 L 204.304688 165.097656 C 201.492188 165.097656 201.492188 169.355469 204.304688 169.394531 L 214.300781 169.394531 C 214.96875 169.46875 215.226562 169.765625 215.226562 170.429688 C 215.191406 170.875 214.707031 171.28125 214.152344 171.28125 L 204.265625 171.28125 C 201.453125 171.28125 201.453125 175.539062 204.265625 175.578125 L 209.636719 175.578125 C 210.300781 175.652344 210.523438 175.949219 210.5625 176.613281 C 210.488281 177.09375 210.042969 177.464844 209.488281 177.464844 L 190.273438 177.464844 C 189.457031 177.539062 188.234375 176.316406 187.605469 175.984375 L 187.605469 157.472656 C 190.828125 156.621094 194.160156 155.214844 195.75 152.066406 C 195.75 152.066406 202.046875 140.808594 202.046875 140.808594 C 203.082031 141.550781 203.527344 142.921875 203.046875 144.105469 L 199.527344 152.660156 C 198.601562 154.65625 200.230469 157.101562 202.453125 157.066406 C 202.453125 157.066406 219.039062 157.066406 219.039062 157.066406 C 219.597656 157.027344 220.078125 157.398438 220.113281 157.878906 Z M 158.355469 175.875 L 158.355469 161.617188 L 109.222656 161.617188 C 100.296875 161.617188 93.078125 168.875 93.078125 177.761719 L 93.078125 243.742188 C 93.078125 252.664062 100.296875 259.886719 109.222656 259.886719 C 110.480469 259.921875 112.628906 259.515625 113.367188 260.921875 C 118.886719 269.957031 127.328125 276.734375 137.214844 281.25 C 135.398438 278.695312 126.847656 259.773438 132.769531 259.886719 C 132.769531 259.886719 196.234375 259.886719 196.234375 259.886719 C 205.117188 259.886719 212.339844 252.664062 212.339844 243.742188 L 212.339844 196.273438 L 178.71875 196.273438 C 167.5 196.273438 158.355469 187.128906 158.355469 175.875 Z M 107.257812 172.542969 C 112 167.726562 119.476562 168.800781 123.511719 173.910156 C 129.84375 165.765625 142.65625 169.503906 142.878906 179.984375 C 142.878906 182.796875 141.765625 185.425781 139.769531 187.425781 L 125.03125 202.199219 C 124.179688 203.015625 122.847656 203.015625 121.996094 202.199219 L 107.257812 187.425781 C 103.148438 183.539062 103.148438 176.464844 107.257812 172.542969 Z M 106.296875 211.195312 L 155.355469 211.195312 C 158.132812 211.195312 158.171875 215.492188 155.355469 215.492188 L 106.296875 215.492188 C 103.519531 215.453125 103.484375 211.269531 106.296875 211.195312 Z M 194.9375 246.222656 L 106.296875 246.222656 C 103.519531 246.1875 103.445312 242.003906 106.296875 241.929688 L 194.9375 241.929688 C 197.714844 241.964844 197.789062 246.222656 194.9375 246.222656 Z M 194.9375 230.5625 L 106.296875 230.5625 C 103.519531 230.523438 103.445312 226.339844 106.296875 226.265625 L 194.9375 226.265625 C 197.714844 226.265625 197.789062 230.5625 194.9375 230.5625 Z M 110.296875 184.390625 C 109.109375 183.203125 108.445312 181.648438 108.445312 179.984375 C 108.257812 174.578125 115.441406 171.578125 119.144531 175.539062 C 119.144531 175.539062 122.03125 178.429688 122.03125 178.429688 C 122.847656 179.28125 124.253906 179.28125 125.070312 178.429688 L 127.957031 175.539062 C 130.289062 173.171875 134.4375 173.171875 136.769531 175.539062 L 136.804688 175.539062 C 137.992188 176.726562 138.65625 178.316406 138.65625 179.984375 C 138.65625 181.648438 137.992188 183.203125 136.804688 184.425781 L 123.585938 197.683594 Z M 110.296875 184.390625 " fill-opacity="1" fill-rule="nonzero"/></g></svg>