<svg xmlns="http://www.w3.org/2000/svg" xmlns:xlink="http://www.w3.org/1999/xlink" width="500" zoomAndPan="magnify" viewBox="0 0 375 374.999991" height="500" preserveAspectRatio="xMidYMid meet" version="1.0"><defs><clipPath id="12645d140a"><path d="M 101.601562 94 L 273.351562 94 L 273.351562 281 L 101.601562 281 Z M 101.601562 94 " clip-rule="nonzero"/></clipPath></defs><g clip-path="url(#12645d140a)"><path fill="#003d8f" d="M 189.546875 151.089844 C 179.789062 157.324219 169.066406 161.5 157.703125 164.320312 C 157.515625 164.367188 157.382812 164.53125 157.382812 164.730469 C 156.980469 200.570312 166.519531 215.175781 189.613281 224.730469 C 189.722656 224.773438 189.832031 224.773438 189.941406 224.730469 C 213.03125 215.175781 222.570312 200.570312 222.171875 164.730469 C 222.167969 164.53125 222.039062 164.367188 221.847656 164.320312 C 210.488281 161.5 199.761719 157.324219 190.003906 151.089844 C 189.863281 150.996094 189.691406 150.996094 189.546875 151.089844 Z M 239.222656 101.640625 L 261.492188 140.21875 C 262.046875 141.179688 263.355469 141.53125 264.328125 140.96875 L 272.042969 136.515625 C 273.03125 135.945312 273.367188 134.640625 272.808594 133.667969 L 250.535156 95.105469 C 249.964844 94.117188 248.660156 93.777344 247.691406 94.339844 L 239.984375 98.792969 C 239 99.367188 238.660156 100.667969 239.222656 101.640625 Z M 222.863281 153.511719 C 220.589844 154.734375 218.25 154.808594 215.902344 153.742188 L 190.644531 142.261719 C 186.003906 140.152344 189.296875 132.90625 192.796875 134.109375 L 210.367188 140.152344 C 211.082031 140.394531 211.652344 140.359375 212.316406 140.191406 L 221.789062 137.824219 C 223.496094 137.398438 224.535156 135.664062 224.109375 133.953125 C 223.683594 132.246094 221.949219 131.203125 220.238281 131.632812 L 211.675781 133.773438 C 211.589844 133.792969 211.515625 133.789062 211.433594 133.761719 L 194.871094 128.066406 C 190.367188 126.519531 185.722656 128.972656 183.488281 132.914062 C 183.410156 133.050781 183.269531 133.132812 183.109375 133.128906 C 178.664062 133.066406 175.238281 133.003906 170.628906 133.628906 C 167.070312 134.109375 162.597656 135.140625 159.054688 136.65625 L 159.050781 136.652344 L 130.742188 149.363281 C 129.117188 149.347656 127.78125 149.285156 126.71875 148.179688 C 125.996094 147.425781 129.386719 144.199219 132.179688 141.726562 C 144.914062 130.453125 175.699219 113.191406 187.832031 111.460938 C 201.140625 109.566406 207.121094 111.234375 211.976562 112.585938 C 218.433594 114.386719 223.195312 115.714844 236.328125 110.113281 C 236.527344 110.027344 236.757812 110.101562 236.867188 110.292969 L 252.359375 137.128906 C 252.480469 137.339844 252.40625 137.601562 252.195312 137.714844 Z M 135.734375 273.40625 L 113.460938 234.828125 C 112.90625 233.867188 111.601562 233.515625 110.628906 234.074219 L 102.910156 238.53125 C 101.925781 239.101562 101.585938 240.40625 102.144531 241.375 L 124.417969 279.941406 C 124.988281 280.929688 126.292969 281.265625 127.265625 280.707031 L 134.96875 276.25 C 135.957031 275.679688 136.292969 274.375 135.734375 273.40625 Z M 152.09375 221.535156 C 154.363281 220.3125 156.703125 220.238281 159.050781 221.304688 L 184.308594 232.785156 C 188.945312 234.894531 185.664062 242.140625 182.15625 240.9375 L 164.585938 234.894531 C 163.871094 234.648438 163.300781 234.6875 162.640625 234.851562 L 153.167969 237.222656 C 151.457031 237.648438 150.417969 239.382812 150.84375 241.089844 C 151.273438 242.800781 153.003906 243.839844 154.714844 243.414062 L 163.277344 241.273438 C 163.363281 241.25 163.441406 241.253906 163.519531 241.28125 L 180.085938 246.980469 C 184.585938 248.527344 189.234375 246.074219 191.464844 242.132812 C 191.546875 241.992188 191.683594 241.914062 191.84375 241.917969 C 196.289062 241.980469 199.714844 242.039062 204.324219 241.417969 C 207.882812 240.9375 212.359375 239.902344 215.898438 238.390625 L 215.902344 238.390625 L 244.210938 225.683594 C 245.839844 225.699219 247.171875 225.757812 248.234375 226.867188 C 248.957031 227.617188 245.566406 230.84375 242.773438 233.316406 C 230.039062 244.589844 199.253906 261.855469 187.121094 263.582031 C 173.8125 265.480469 167.832031 263.8125 162.976562 262.457031 C 156.519531 260.660156 151.757812 259.332031 138.625 264.933594 C 138.425781 265.019531 138.195312 264.941406 138.085938 264.753906 L 122.59375 237.917969 C 122.472656 237.707031 122.546875 237.445312 122.757812 237.328125 Z M 207.246094 173.800781 C 208.542969 174.992188 208.625 177.011719 207.433594 178.308594 L 188.792969 198.589844 C 187.5625 199.960938 185.5625 200.058594 184.246094 198.875 L 173.695312 189.402344 C 172.386719 188.226562 172.28125 186.207031 173.460938 184.898438 C 174.640625 183.585938 176.65625 183.480469 177.964844 184.660156 L 185.851562 191.742188 C 186.027344 191.894531 186.292969 191.882812 186.449219 191.710938 L 202.738281 173.988281 C 203.929688 172.691406 205.949219 172.609375 207.246094 173.800781 Z M 207.246094 173.800781 " fill-opacity="1" fill-rule="evenodd"/></g></svg>